<svg width="0" height="0" class="hidden">
  <symbol xmlns="http://www.w3.org/2000/svg" viewBox="0 0 16 16" id="workspace">
    <path d="M8.069 0c.262 0 .52.017.76.057a4.1 4.1 0 0 1 .697.154c.228.069.451.155.674.263.217.103.44.229.663.366.377.24.748.434 1.126.589a7.537 7.537 0 0 0 2.331.525c.406.029.823.046 1.257.046v4c0 .76-.097 1.48-.291 2.166a8.996 8.996 0 0 1-.789 1.943 10.312 10.312 0 0 1-1.188 1.725 15.091 15.091 0 0 1-1.492 1.532 17.57 17.57 0 0 1-1.703 1.325c-.594.412-1.194.795-1.794 1.143l-.24.143-.24-.143a27.093 27.093 0 0 1-1.806-1.143 15.58 15.58 0 0 1-1.703-1.325 15.082 15.082 0 0 1-1.491-1.532 10.947 10.947 0 0 1-1.194-1.725 9.753 9.753 0 0 1-.789-1.943A7.897 7.897 0 0 1 .571 6V2c.435 0 .852-.017 1.258-.046a8.16 8.16 0 0 0 1.188-.171c.383-.086.766-.2 1.143-.354A6.563 6.563 0 0 0 5.28.846C5.72.56 6.166.349 6.606.21A4.79 4.79 0 0 1 8.069 0zm6.502 2.983a9.566 9.566 0 0 1-2.234-.377 7.96 7.96 0 0 1-2.046-.943A4.263 4.263 0 0 0 9.23 1.16 3.885 3.885 0 0 0 8.074.994a3.99 3.99 0 0 0-1.165.166 3.946 3.946 0 0 0-1.058.503A7.926 7.926 0 0 1 3.8 2.61c-.709.206-1.451.332-2.229.378v3.017c0 .663.086 1.297.258 1.908a8.58 8.58 0 0 0 .72 1.743 9.604 9.604 0 0 0 1.08 1.572c.417.491.862.948 1.342 1.382.48.435.983.835 1.509 1.206.531.372 1.063.709 1.594 1.017a22.397 22.397 0 0 0 1.589-1.017 15.389 15.389 0 0 0 1.514-1.206c.48-.434.926-.891 1.343-1.382a9.596 9.596 0 0 0 1.08-1.572 8.258 8.258 0 0 0 .709-1.743 6.814 6.814 0 0 0 .262-1.908V2.983z"/>
    <path fill-rule="evenodd" clip-rule="evenodd" d="M11.797 4.709l-.44-.378-.406.035-4.36 5.148-1.485-2.12-.4-.068-.463.331-.069.4 1.909 2.726.217.12.457.028.234-.102 4.835-5.715-.029-.405z"/>
  </symbol>

  <symbol xmlns="http://www.w3.org/2000/svg" fill="none" stroke="currentColor" stroke-width="2" stroke-linecap="round" stroke-linejoin="round" viewBox="0 0 24 24" id="ads">
    <polygon points="11 5 6 9 2 9 2 15 6 15 11 19 11 5"></polygon>
    <path d="M19.07 4.93a10 10 0 0 1 0 14.14M15.54 8.46a5 5 0 0 1 0 7.07"></path>
  </symbol>

  <symbol version="1.1" xmlns="http://www.w3.org/2000/svg" viewBox="0 0 32 32" id="idea">
    <path d="M16 0c-6.076 0-11 4.924-11 11 0 4.031 3.688 8.303 5.031 12.055 2.003 5.595 1.781 8.945 5.969 8.945 4.25 0 3.965-3.334 5.969-8.922 1.347-3.76 5.031-8.078 5.031-12.078 0-6.076-4.926-11-11-11zM18.592 27.176l-4.958 0.619c-0.177-0.512-0.367-1.111-0.598-1.893-0.003-0.010-0.007-0.021-0.009-0.031l6.188-0.773c-0.088 0.295-0.182 0.605-0.264 0.883-0.131 0.449-0.248 0.839-0.359 1.195zM12.736 24.908c-0.182-0.602-0.387-1.236-0.615-1.908h7.766c-0.123 0.359-0.246 0.719-0.352 1.059l-6.799 0.849zM16 30c-1.013 0-1.479-0.117-1.997-1.25l4.238-0.531c-0.614 1.654-1.061 1.781-2.241 1.781zM20.672 21h-9.333c-0.498-1.080-1.096-2.16-1.686-3.217-1.305-2.335-2.653-4.75-2.653-6.783 0-4.963 4.037-9 9-9s9 4.037 9 9c0 2.018-1.35 4.446-2.656 6.795-0.584 1.053-1.178 2.131-1.672 3.205zM16 5c0.275 0 0.5 0.224 0.5 0.5s-0.224 0.5-0.5 0.5c-2.757 0-5 2.243-5 5 0 0.276-0.224 0.5-0.5 0.5s-0.5-0.224-0.5-0.5c0-3.309 2.691-6 6-6z"></path>
  </symbol>

  <symbol version="1.1" xmlns="http://www.w3.org/2000/svg" viewBox="0 0 32 32" id="target">
    <path d="M16 8c-4.418 0-8 3.582-8 8s3.582 8 8 8 8-3.582 8-8-3.582-8-8-8zM16 22c-3.313 0-6-2.687-6-6s2.687-6 6-6 6 2.687 6 6-2.687 6-6 6zM16 0c-8.837 0-16 7.163-16 16s7.163 16 16 16 16-7.163 16-16-7.163-16-16-16zM16 28c-6.627 0-12-5.373-12-12s5.373-12 12-12 12 5.373 12 12-5.373 12-12 12zM16 13c-1.657 0-3 1.343-3 3s1.343 3 3 3 3-1.343 3-3-1.343-3-3-3z"></path>
  </symbol>

  <symbol version="1.1" xmlns="http://www.w3.org/2000/svg" viewBox="0 0 32 32" id="search">
    <path d="M31.008 27.231l-7.58-6.447c-0.784-0.705-1.622-1.029-2.299-0.998 1.789-2.096 2.87-4.815 2.87-7.787 0-6.627-5.373-12-12-12s-12 5.373-12 12 5.373 12 12 12c2.972 0 5.691-1.081 7.787-2.87-0.031 0.677 0.293 1.515 0.998 2.299l6.447 7.58c1.104 1.226 2.907 1.33 4.007 0.23s0.997-2.903-0.23-4.007zM12 20c-4.418 0-8-3.582-8-8s3.582-8 8-8 8 3.582 8 8-3.582 8-8 8z"></path>
  </symbol>
  <symbol xmlns="http://www.w3.org/2000/svg" viewBox="0 0 512 512" id="mail">
    <path d="M256 64C150 64 64 150 64 256s86 192 192 192c17.7 0 32 14.3 32 32s-14.3 32-32 32C114.6 512 0 397.4 0 256S114.6 0 256 0s256 114.6 256 256v32c0 53-43 96-96 96-29.3 0-55.6-13.2-73.2-33.9C320 371.1 289.5 384 256 384c-70.7 0-128-57.3-128-128s57.3-128 128-128c27.9 0 53.7 8.9 74.7 24.1 5.7-5 13.1-8.1 21.3-8.1 17.7 0 32 14.3 32 32v80 32c0 17.7 14.3 32 32 32s32-14.3 32-32v-32c0-106-86-192-192-192zm64 192a64 64 0 1 0-128 0 64 64 0 1 0 128 0z"/>
  </symbol>
  <symbol xmlns="http://www.w3.org/2000/svg" viewBox="0 0 496 512" id="telegram">
    <path d="M248 8C111 8 0 119 0 256s111 248 248 248 248-111 248-248S385 8 248 8zm115 168.7c-3.7 39.2-19.9 134.4-28.1 178.3-3.5 18.6-10.3 24.8-16.9 25.4-14.4 1.3-25.3-9.5-39.3-18.7-21.8-14.3-34.2-23.2-55.3-37.2-24.5-16.1-8.6-25 5.3-39.5 3.7-3.8 67.1-61.5 68.3-66.7.2-.7.3-3.1-1.2-4.4s-3.6-.8-5.1-.5q-3.3.7-104.6 69.1-14.8 10.2-26.9 9.9c-8.9-.2-25.9-5-38.6-9.1-15.5-5-27.9-7.7-26.8-16.3q.8-6.7 18.5-13.7 108.4-47.2 144.6-62.3c68.9-28.6 83.2-33.6 92.5-33.8 2.1 0 6.6.5 9.6 2.9a10.5 10.5 0 0 1 3.5 6.7 43.8 43.8 0 0 1 .4 16.7z"/>
  </symbol>

  <symbol fill="none" stroke-width="1.5" xmlns="http://www.w3.org/2000/svg" viewBox="0 0 24 24" id="trekking_icon">
    <path d="M18 10L15 11.5L11 8.5L10 14L13.5 17L14 21.5" stroke="currentColor" stroke-linecap="round" stroke-linejoin="round"></path>
    <path d="M18 8.5V10V21.5" stroke="currentColor" stroke-linecap="round" stroke-linejoin="round"></path>
    <path d="M10 17L8 21.5" stroke="currentColor" stroke-linecap="round" stroke-linejoin="round"></path>
    <path d="M8.5 8.5C7 9.5 6 12 6 12L8 13" stroke="currentColor" stroke-linecap="round" stroke-linejoin="round"></path>
    <path d="M12 6.5C13.1046 6.5 14 5.60457 14 4.5C14 3.39543 13.1046 2.5 12 2.5C10.8954 2.5 10 3.39543 10 4.5C10 5.60457 10.8954 6.5 12 6.5Z" stroke="currentColor" stroke-linecap="round" stroke-linejoin="round"></path>
  </symbol>

  <symbol fill="none" xmlns="http://www.w3.org/2000/svg" viewBox="-0.5 0 25 25" id="mail--big">
    <path d="M9.00977 21.39H19.0098C20.0706 21.39 21.0881 20.9685 21.8382 20.2184C22.5883 19.4682 23.0098 18.4509 23.0098 17.39V7.39001C23.0098 6.32915 22.5883 5.31167 21.8382 4.56152C21.0881 3.81138 20.0706 3.39001 19.0098 3.39001H7.00977C5.9489 3.39001 4.93148 3.81138 4.18134 4.56152C3.43119 5.31167 3.00977 6.32915 3.00977 7.39001V12.39" stroke-width="1.5" stroke-linecap="round" stroke-linejoin="round"></path>
    <path d="M1.00977 18.39H11.0098" stroke-width="1.5" stroke-linecap="round" stroke-linejoin="round"></path>
    <path d="M1.00977 15.39H5.00977" stroke-width="1.5" stroke-linecap="round" stroke-linejoin="round"></path>
    <path d="M22.209 5.41992C16.599 16.0599 9.39906 16.0499 3.78906 5.41992" stroke-width="1.5" stroke-linecap="round" stroke-linejoin="round"></path>
  </symbol>
  <symbol xmlns="http://www.w3.org/2000/svg" stroke-width="3" fill="none" viewBox="0 0 64 64" id="telegram--big">
    <path d="M26.67,38.57l-.82,11.54A2.88,2.88,0,0,0,28.14,49l5.5-5.26,11.42,8.35c2.08,1.17,3.55.56,4.12-1.92l7.49-35.12h0c.66-3.09-1.08-4.33-3.16-3.55l-44,16.85C6.47,29.55,6.54,31.23,9,32l11.26,3.5L45.59,20.71c1.23-.83,2.36-.37,1.44.44Z" stroke-linecap="round"></path>
  </symbol>

  <symbol xmlns="http://www.w3.org/2000/svg" id="menu" viewBox="0 0 32 32"><path d="M5 8h22M5 16h22M27 24H5" stroke-width="3" stroke-linecap="round"/></symbol>
  <symbol xmlns="http://www.w3.org/2000/svg" id="cross" viewBox="0 0 32 32"><path d="M7 24L25 8M25 24L7 8" stroke-width="3" stroke-linecap="round"/></symbol>

  <symbol xmlns="http://www.w3.org/2000/svg" fill="none" stroke="currentColor" stroke-width="2" stroke-linecap="round" stroke-linejoin="round" viewBox="0 0 24 24" id="check">
    <path d="M22 11.08V12a10 10 0 1 1-5.93-9.14"></path>
    <polyline points="22 4 12 14.01 9 11.01"></polyline>
  </symbol>

  <symbol xmlns="http://www.w3.org/2000/svg" viewBox="0 0 74 79" id="mastodon_icon">
    <path d="M73.7014 17.9592C72.5616 9.62034 65.1774 3.04876 56.424 1.77536C54.9472 1.56019 49.3517 0.7771 36.3901 0.7771H36.2933C23.3281 0.7771 20.5465 1.56019 19.0697 1.77536C10.56 3.01348 2.78877 8.91838 0.903306 17.356C-0.00357857 21.5113 -0.100361 26.1181 0.068112 30.3439C0.308275 36.404 0.354874 42.4535 0.91406 48.489C1.30064 52.498 1.97502 56.4751 2.93215 60.3905C4.72441 67.6217 11.9795 73.6395 19.0876 76.0945C26.6979 78.6548 34.8821 79.0799 42.724 77.3221C43.5866 77.1245 44.4398 76.8953 45.2833 76.6342C47.1867 76.0381 49.4199 75.3714 51.0616 74.2003C51.0841 74.1839 51.1026 74.1627 51.1156 74.1382C51.1286 74.1138 51.1359 74.0868 51.1368 74.0592V68.2108C51.1364 68.185 51.1302 68.1596 51.1185 68.1365C51.1069 68.1134 51.0902 68.0932 51.0695 68.0773C51.0489 68.0614 51.0249 68.0503 50.9994 68.0447C50.9738 68.0391 50.9473 68.0392 50.9218 68.045C45.8976 69.226 40.7491 69.818 35.5836 69.8087C26.694 69.8087 24.3031 65.6569 23.6184 63.9285C23.0681 62.4347 22.7186 60.8764 22.5789 59.2934C22.5775 59.2669 22.5825 59.2403 22.5934 59.216C22.6043 59.1916 22.621 59.1702 22.6419 59.1533C22.6629 59.1365 22.6876 59.1248 22.714 59.1191C22.7404 59.1134 22.7678 59.1139 22.794 59.1206C27.7345 60.2936 32.799 60.8856 37.8813 60.8843C39.1036 60.8843 40.3223 60.8843 41.5447 60.8526C46.6562 60.7115 52.0437 60.454 57.0728 59.4874C57.1983 59.4628 57.3237 59.4416 57.4313 59.4098C65.3638 57.9107 72.9128 53.2051 73.6799 41.2895C73.7086 40.8204 73.7803 36.3758 73.7803 35.889C73.7839 34.2347 74.3216 24.1533 73.7014 17.9592ZM61.4925 47.6918H53.1514V27.5855C53.1514 23.3526 51.3591 21.1938 47.7136 21.1938C43.7061 21.1938 41.6988 23.7476 41.6988 28.7919V39.7974H33.4078V28.7919C33.4078 23.7476 31.3969 21.1938 27.3894 21.1938C23.7654 21.1938 21.9552 23.3526 21.9516 27.5855V47.6918H13.6176V26.9752C13.6176 22.7423 14.7157 19.3795 16.9118 16.8868C19.1772 14.4 22.1488 13.1231 25.8373 13.1231C30.1064 13.1231 33.3325 14.7386 35.4832 17.9662L37.5587 21.3949L39.6377 17.9662C41.7884 14.7386 45.0145 13.1231 49.2765 13.1231C52.9614 13.1231 55.9329 14.4 58.2055 16.8868C60.4017 19.3772 61.4997 22.74 61.4997 26.9752L61.4925 47.6918Z" fill="inherit"></path>
  </symbol>
  <symbol xmlns="http://www.w3.org/2000/svg" viewBox="0 0 512 512" id="facebook_icon">
    <path d="M504 256C504 119 393 8 256 8S8 119 8 256c0 123.78 90.69 226.38 209.25 245V327.69h-63V256h63v-54.64c0-62.15 37-96.48 93.67-96.48 27.14 0 55.52 4.84 55.52 4.84v61h-31.28c-30.8 0-40.41 19.12-40.41 38.73V256h68.78l-11 71.69h-57.78V501C413.31 482.38 504 379.78 504 256z"></path>
  </symbol>
  <symbol id="twitter_icon" version="1.1" xml:space="preserve" xmlns="http://www.w3.org/2000/svg" xmlns:xlink="http://www.w3.org/1999/xlink" viewBox="0 0 24 24">
    <g>
      <polygon points="12.153992,10.729553 8.088684,5.041199 5.92041,5.041199 10.956299,12.087097 11.59021,12.97345    15.900635,19.009583 18.068909,19.009583 12.785217,11.615906  "></polygon>
      <path d="M21.15979,1H2.84021C1.823853,1,1,1.823853,1,2.84021v18.31958C1,22.176147,1.823853,23,2.84021,23h18.31958   C22.176147,23,23,22.176147,23,21.15979V2.84021C23,1.823853,22.176147,1,21.15979,1z M15.235352,20l-4.362549-6.213013   L5.411438,20H4l6.246887-7.104675L4,4h4.764648l4.130127,5.881958L18.06958,4h1.411377l-5.95697,6.775635L20,20H15.235352z"></path>
    </g>
  </symbol>
  <symbol version="1.1" xml:space="preserve" xmlns="http://www.w3.org/2000/svg" xmlnsSerif="http://www.serif.com/" xmlns:xlink="http://www.w3.org/1999/xlink" viewBox="0 0 512 512" id="linkedin_icon">
    <path d="M256,0c141.29,0 256,114.71 256,256c0,141.29 -114.71,256 -256,256c-141.29,0 -256,-114.71 -256,-256c0,-141.29 114.71,-256 256,-256Zm-80.037,399.871l0,-199.921l-66.464,0l0,199.921l66.464,0Zm239.62,0l0,-114.646c0,-61.409 -32.787,-89.976 -76.509,-89.976c-35.255,0 -51.047,19.389 -59.889,33.007l0,-28.306l-66.447,0c0.881,18.757 0,199.921 0,199.921l66.446,0l0,-111.65c0,-5.976 0.43,-11.95 2.191,-16.221c4.795,-11.935 15.737,-24.299 34.095,-24.299c24.034,0 33.663,18.34 33.663,45.204l0,106.966l66.45,0Zm-272.403,-296.321c-22.74,0 -37.597,14.95 -37.597,34.545c0,19.182 14.405,34.544 36.717,34.544l0.429,0c23.175,0 37.6,-15.362 37.6,-34.544c-0.43,-19.595 -14.424,-34.545 -37.149,-34.545Z"></path>
  </symbol>

  <symbol id="rss_icon" viewBox="0 0 20 20" xmlns="http://www.w3.org/2000/svg">
    <circle cx="10" cy="10" r="10"/>
    <path fill="var(--background-color)" d="M6.833 15a1.833 1.833 0 1 0 0-3.667 1.833 1.833 0 0 0 0 3.667"/>
    <path fill="var(--background-color)" d="M5 9.5a5.5 5.5 0 0 1 5.5 5.5h1.833A7.333 7.333 0 0 0 5 7.667z"/>
    <path fill="var(--background-color)" d="M5 5.833A9.167 9.167 0 0 1 14.167 15H16A11 11 0 0 0 5 4z"/>
  </symbol>

</svg>