<svg width="0" height="0" class="hidden">
  <symbol xmlns="http://www.w3.org/2000/svg" viewBox="0 0 16 16" id="workspace">
    <path d="M8.069 0c.262 0 .52.017.76.057a4.1 4.1 0 0 1 .697.154c.228.069.451.155.674.263.217.103.44.229.663.366.377.24.748.434 1.126.589a7.537 7.537 0 0 0 2.331.525c.406.029.823.046 1.257.046v4c0 .76-.097 1.48-.291 2.166a8.996 8.996 0 0 1-.789 1.943 10.312 10.312 0 0 1-1.188 1.725 15.091 15.091 0 0 1-1.492 1.532 17.57 17.57 0 0 1-1.703 1.325c-.594.412-1.194.795-1.794 1.143l-.24.143-.24-.143a27.093 27.093 0 0 1-1.806-1.143 15.58 15.58 0 0 1-1.703-1.325 15.082 15.082 0 0 1-1.491-1.532 10.947 10.947 0 0 1-1.194-1.725 9.753 9.753 0 0 1-.789-1.943A7.897 7.897 0 0 1 .571 6V2c.435 0 .852-.017 1.258-.046a8.16 8.16 0 0 0 1.188-.171c.383-.086.766-.2 1.143-.354A6.563 6.563 0 0 0 5.28.846C5.72.56 6.166.349 6.606.21A4.79 4.79 0 0 1 8.069 0zm6.502 2.983a9.566 9.566 0 0 1-2.234-.377 7.96 7.96 0 0 1-2.046-.943A4.263 4.263 0 0 0 9.23 1.16 3.885 3.885 0 0 0 8.074.994a3.99 3.99 0 0 0-1.165.166 3.946 3.946 0 0 0-1.058.503A7.926 7.926 0 0 1 3.8 2.61c-.709.206-1.451.332-2.229.378v3.017c0 .663.086 1.297.258 1.908a8.58 8.58 0 0 0 .72 1.743 9.604 9.604 0 0 0 1.08 1.572c.417.491.862.948 1.342 1.382.48.435.983.835 1.509 1.206.531.372 1.063.709 1.594 1.017a22.397 22.397 0 0 0 1.589-1.017 15.389 15.389 0 0 0 1.514-1.206c.48-.434.926-.891 1.343-1.382a9.596 9.596 0 0 0 1.08-1.572 8.258 8.258 0 0 0 .709-1.743 6.814 6.814 0 0 0 .262-1.908V2.983z"/>
    <path fill-rule="evenodd" clip-rule="evenodd" d="M11.797 4.709l-.44-.378-.406.035-4.36 5.148-1.485-2.12-.4-.068-.463.331-.069.4 1.909 2.726.217.12.457.028.234-.102 4.835-5.715-.029-.405z"/>
  </symbol>
  
  <symbol xmlns="http://www.w3.org/2000/svg" fill="none" stroke="currentColor" stroke-width="2" stroke-linecap="round" stroke-linejoin="round" viewBox="0 0 24 24" id="ads">
    <polygon points="11 5 6 9 2 9 2 15 6 15 11 19 11 5"></polygon>
    <path d="M19.07 4.93a10 10 0 0 1 0 14.14M15.54 8.46a5 5 0 0 1 0 7.07"></path>
  </symbol>


  <symbol version="1.1" xmlns="http://www.w3.org/2000/svg" viewBox="0 0 32 32" id="idea">
    <path d="M16 0c-6.076 0-11 4.924-11 11 0 4.031 3.688 8.303 5.031 12.055 2.003 5.595 1.781 8.945 5.969 8.945 4.25 0 3.965-3.334 5.969-8.922 1.347-3.76 5.031-8.078 5.031-12.078 0-6.076-4.926-11-11-11zM18.592 27.176l-4.958 0.619c-0.177-0.512-0.367-1.111-0.598-1.893-0.003-0.010-0.007-0.021-0.009-0.031l6.188-0.773c-0.088 0.295-0.182 0.605-0.264 0.883-0.131 0.449-0.248 0.839-0.359 1.195zM12.736 24.908c-0.182-0.602-0.387-1.236-0.615-1.908h7.766c-0.123 0.359-0.246 0.719-0.352 1.059l-6.799 0.849zM16 30c-1.013 0-1.479-0.117-1.997-1.25l4.238-0.531c-0.614 1.654-1.061 1.781-2.241 1.781zM20.672 21h-9.333c-0.498-1.080-1.096-2.16-1.686-3.217-1.305-2.335-2.653-4.75-2.653-6.783 0-4.963 4.037-9 9-9s9 4.037 9 9c0 2.018-1.35 4.446-2.656 6.795-0.584 1.053-1.178 2.131-1.672 3.205zM16 5c0.275 0 0.5 0.224 0.5 0.5s-0.224 0.5-0.5 0.5c-2.757 0-5 2.243-5 5 0 0.276-0.224 0.5-0.5 0.5s-0.5-0.224-0.5-0.5c0-3.309 2.691-6 6-6z"></path>
  </symbol>


  <symbol version="1.1" xmlns="http://www.w3.org/2000/svg" viewBox="0 0 32 32" id="target">
    <path d="M16 8c-4.418 0-8 3.582-8 8s3.582 8 8 8 8-3.582 8-8-3.582-8-8-8zM16 22c-3.313 0-6-2.687-6-6s2.687-6 6-6 6 2.687 6 6-2.687 6-6 6zM16 0c-8.837 0-16 7.163-16 16s7.163 16 16 16 16-7.163 16-16-7.163-16-16-16zM16 28c-6.627 0-12-5.373-12-12s5.373-12 12-12 12 5.373 12 12-5.373 12-12 12zM16 13c-1.657 0-3 1.343-3 3s1.343 3 3 3 3-1.343 3-3-1.343-3-3-3z"></path>
  </symbol>


  <symbol version="1.1" xmlns="http://www.w3.org/2000/svg" viewBox="0 0 32 32" id="search">
    <path d="M31.008 27.231l-7.58-6.447c-0.784-0.705-1.622-1.029-2.299-0.998 1.789-2.096 2.87-4.815 2.87-7.787 0-6.627-5.373-12-12-12s-12 5.373-12 12 5.373 12 12 12c2.972 0 5.691-1.081 7.787-2.87-0.031 0.677 0.293 1.515 0.998 2.299l6.447 7.58c1.104 1.226 2.907 1.33 4.007 0.23s0.997-2.903-0.23-4.007zM12 20c-4.418 0-8-3.582-8-8s3.582-8 8-8 8 3.582 8 8-3.582 8-8 8z"></path>
  </symbol>
  <symbol xmlns="http://www.w3.org/2000/svg" viewBox="0 0 512 512" id="mail">
    <path d="M256 64C150 64 64 150 64 256s86 192 192 192c17.7 0 32 14.3 32 32s-14.3 32-32 32C114.6 512 0 397.4 0 256S114.6 0 256 0s256 114.6 256 256v32c0 53-43 96-96 96-29.3 0-55.6-13.2-73.2-33.9C320 371.1 289.5 384 256 384c-70.7 0-128-57.3-128-128s57.3-128 128-128c27.9 0 53.7 8.9 74.7 24.1 5.7-5 13.1-8.1 21.3-8.1 17.7 0 32 14.3 32 32v80 32c0 17.7 14.3 32 32 32s32-14.3 32-32v-32c0-106-86-192-192-192zm64 192a64 64 0 1 0-128 0 64 64 0 1 0 128 0z"/>
  </symbol>
  <symbol xmlns="http://www.w3.org/2000/svg" viewBox="0 0 496 512" id="telegram">
    <path d="M248 8C111 8 0 119 0 256s111 248 248 248 248-111 248-248S385 8 248 8zm115 168.7c-3.7 39.2-19.9 134.4-28.1 178.3-3.5 18.6-10.3 24.8-16.9 25.4-14.4 1.3-25.3-9.5-39.3-18.7-21.8-14.3-34.2-23.2-55.3-37.2-24.5-16.1-8.6-25 5.3-39.5 3.7-3.8 67.1-61.5 68.3-66.7.2-.7.3-3.1-1.2-4.4s-3.6-.8-5.1-.5q-3.3.7-104.6 69.1-14.8 10.2-26.9 9.9c-8.9-.2-25.9-5-38.6-9.1-15.5-5-27.9-7.7-26.8-16.3q.8-6.7 18.5-13.7 108.4-47.2 144.6-62.3c68.9-28.6 83.2-33.6 92.5-33.8 2.1 0 6.6.5 9.6 2.9a10.5 10.5 0 0 1 3.5 6.7 43.8 43.8 0 0 1 .4 16.7z"/>
  </symbol>
</svg>