<svg width="0" height="0" class="hidden">

  <symbol version="1.1" id="css3" xmlns="http://www.w3.org/2000/svg" xmlns:xlink="http://www.w3.org/1999/xlink" x="0px" y="0px" xml:space="preserve" viewBox="0 0 512.005 512.005">

    <g>

      <g>

        <path d="M472.661,341.741l-3.157-0.533C450.795,338.157,448,333.293,448,330.669c0-4.245,8.512-10.667,21.355-10.667

			c12.629,0,20.949,5.995,21.355,10.304c0.576,5.888,5.995,10.389,11.648,9.6c5.845-0.555,10.155-5.76,9.6-11.627

			c-1.621-16.896-19.925-29.632-42.603-29.632c-23.936,0-42.688,14.059-42.688,32c0,16.704,13.248,27.328,39.424,31.595

			l1.707-10.517l1.408,11.051c17.728,2.923,21.461,7.36,21.461,10.56c0,4.245-8.512,10.667-21.355,10.667

			c-12.629,0-20.949-6.016-21.355-10.325c-0.555-5.867-5.867-10.24-11.648-9.6c-5.845,0.555-10.155,5.76-9.6,11.627

			c1.621,16.896,19.925,29.632,42.603,29.632c23.936,0,42.688-14.059,42.688-32C512,356.653,498.773,346.029,472.661,341.741z"></path>

      </g>

    </g>

    <g>

      <g>

        <path d="M365.973,341.741l-3.157-0.533c-18.709-3.051-21.504-7.915-21.504-10.539c0-4.245,8.512-10.667,21.355-10.667

			c12.629,0,20.949,6.016,21.355,10.304c0.576,5.888,5.931,10.389,11.648,9.6c5.845-0.555,10.155-5.76,9.6-11.627

			c-1.621-16.896-19.925-29.632-42.603-29.632c-23.936,0-42.688,14.059-42.688,32c0,16.704,13.248,27.328,39.424,31.595

			l1.707-10.517l1.429,11.051c17.707,2.923,21.44,7.36,21.44,10.56c0,4.245-8.512,10.667-21.355,10.667

			c-12.629,0-20.949-6.016-21.355-10.325c-0.576-5.867-5.824-10.24-11.648-9.6c-5.845,0.555-10.155,5.76-9.6,11.627

			c1.621,16.896,19.925,29.632,42.603,29.632c23.936,0,42.688-14.059,42.688-32C405.312,356.653,392.085,346.029,365.973,341.741z"></path>

      </g>

    </g>

    <g>

      <g>

        <path d="M288,362.669c-5.888,0-10.667,4.779-10.667,10.667c0,5.888-4.8,10.667-10.667,10.667h-21.333

			c-5.867,0-10.667-4.779-10.667-10.667v-42.667c0-5.888,4.8-10.667,10.667-10.667h21.333c5.867,0,10.667,4.779,10.667,10.667

			s4.779,10.667,10.667,10.667s10.667-4.779,10.667-10.667c0-17.643-14.357-32-32-32h-21.333c-17.643,0-32,14.357-32,32v42.667

			c0,17.643,14.357,32,32,32h21.333c17.643,0,32-14.357,32-32C298.667,367.448,293.888,362.669,288,362.669z"></path>

      </g>

    </g>

    <g>

      <g>

        <path d="M373.333,277.336c5.888,0,10.667-4.779,10.667-10.667v-256c0-5.888-4.779-10.667-10.667-10.667H138.667

			c-1.451,0-2.837,0.299-4.139,0.832c-0.405,0.171-0.704,0.491-1.067,0.725c-0.811,0.469-1.664,0.896-2.347,1.557l-128,128

			c-0.491,0.491-0.768,1.152-1.152,1.728c-0.384,0.576-0.875,1.067-1.131,1.707C0.299,135.853,0,137.24,0,138.669v362.667

			c0,5.888,4.779,10.667,10.667,10.667h362.667c5.888,0,10.667-4.779,10.667-10.667v-64c0-5.888-4.779-10.667-10.667-10.667

			c-5.888,0-10.667,4.779-10.667,10.667v53.333H21.333V149.336h117.333c5.888,0,10.667-4.779,10.667-10.667V21.336h213.333v245.333

			C362.667,272.557,367.445,277.336,373.333,277.336z M128,128.003H36.416L128,36.419V128.003z"></path>

      </g>

    </g>

    <g></g>

    <g></g>

    <g></g>

    <g></g>

    <g></g>

    <g></g>

    <g></g>

    <g></g>

    <g></g>

    <g></g>

    <g></g>

    <g></g>

    <g></g>

    <g></g>

    <g></g>

  </symbol>

  <symbol role="img" xmlns="http://www.w3.org/2000/svg" viewBox="0 0 24 24" id="figma">

    <path d="M15.852 8.981h-4.588V0h4.588c2.476 0 4.49 2.014 4.49 4.49s-2.014 4.491-4.49 4.491zM12.735 7.51h3.117c1.665 0 3.019-1.355 3.019-3.019s-1.355-3.019-3.019-3.019h-3.117V7.51zm0 1.471H8.148c-2.476 0-4.49-2.014-4.49-4.49S5.672 0 8.148 0h4.588v8.981zm-4.587-7.51c-1.665 0-3.019 1.355-3.019 3.019s1.354 3.02 3.019 3.02h3.117V1.471H8.148zm4.587 15.019H8.148c-2.476 0-4.49-2.014-4.49-4.49s2.014-4.49 4.49-4.49h4.588v8.98zM8.148 8.981c-1.665 0-3.019 1.355-3.019 3.019s1.355 3.019 3.019 3.019h3.117V8.981H8.148zM8.172 24c-2.489 0-4.515-2.014-4.515-4.49s2.014-4.49 4.49-4.49h4.588v4.441c0 2.503-2.047 4.539-4.563 4.539zm-.024-7.51a3.023 3.023 0 0 0-3.019 3.019c0 1.665 1.365 3.019 3.044 3.019 1.705 0 3.093-1.376 3.093-3.068v-2.97H8.148zm7.704 0h-.098c-2.476 0-4.49-2.014-4.49-4.49s2.014-4.49 4.49-4.49h.098c2.476 0 4.49 2.014 4.49 4.49s-2.014 4.49-4.49 4.49zm-.097-7.509c-1.665 0-3.019 1.355-3.019 3.019s1.355 3.019 3.019 3.019h.098c1.665 0 3.019-1.355 3.019-3.019s-1.355-3.019-3.019-3.019h-.098z"></path>

  </symbol>

  <symbol role="img" xmlns="http://www.w3.org/2000/svg" viewBox="0 0 24 24" id="gimp">

    <path d="M19.848 1.636c-.106-.016-.228.107-.324.397-.157.47-1.073 3.203-5.504 4.326.596.512.976 1.242.976 2.059 0 1.547-1.344 2.8-3 2.8-1.655 0-2.997-1.254-2.998-2.8 0-.603.208-1.158.555-1.616-3.135-.322-4.49-3.123-4.49-3.123l-.096 4.163c-.025.564-.009 1.111-.27 1.636a3.335 2.365 54.527 0 0-.05-.072 3.335 2.365 54.527 0 0-2.849-1.654 3.335 2.365 54.527 0 0-1.013.334 3.335 2.365 54.527 0 0 .029 4.095 3.335 2.365 54.527 0 0 3.291 1.59c2.997 2.22 8.482 4.148 12.231 1.885l-2.025-1.629c-1.064.345-2.604.34-4.397-.295 2.9.582 4.47-.053 5.334-.722-.228-.296-.71-.526-.71-.526s.563.107.93.496c.147.155.198.387.218.653.553.298 1.183.656 1.875 1.062 2.06-2.06 3.253-5.933 2.52-12.617-.035-.269-.127-.425-.233-.442zM6.855 7.096c1.051-.001 1.903.795 1.903 1.777 0 .98-.853 1.776-1.903 1.775-1.05 0-1.9-.795-1.9-1.775 0-.981.85-1.777 1.9-1.778zm5.776.482a1.325 1.325 0 1 0-.002 2.65 1.325 1.325 0 0 0 .002-2.65zm-10.942.639a.964.947 0 0 1 .002 0 .964.947 0 0 1 .021 0 .964.947 0 0 1 .965.949.964.947 0 0 1-.965.947.964.947 0 0 1-.962-.947.964.947 0 0 1 .94-.95zm5.559.123a.84.84 0 1 0 .02 1.68.84.84 0 0 0-.02-1.68zm8.26 4.964c-.043.053-.103.099-.156.147l.21.115c-.017-.1-.033-.21-.054-.262zm-.55.1-.733.361.06.05.198.157 1.994 1.606.015.012a81.76 81.76 0 0 0 1.952 1.513.543.543 0 0 0-.008.127l.26-.04.103.152 2.317 1.472c-.12.41-.065.953.207 1.457.79 1.465 2.677 2.094 2.677 2.094-.771-1.968-.209-3.569-1.73-4.133-.242-.09-.453-.093-.629-.033l-2.047-1.895-.174-.052-.025-.262a.839.839 0 0 0-.12.059c-.306-.26-.687-.537-1.09-.815-1.364-.835-2.257-1.3-3.228-1.83z"></path>

  </symbol>

  <symbol xmlns="http://www.w3.org/2000/svg" viewBox="-1 0 24 24" id="git">

    <path d="m7.058 20.277q0-1.339-2.21-1.339-2.116 0-2.116 1.393 0 1.353 2.303 1.353 2.022-.003 2.022-1.406zm-.79-10.112c.001-.025.002-.054.002-.083 0-.48-.15-.925-.406-1.29l.005.007c-.255-.336-.655-.552-1.105-.552-.031 0-.061.001-.091.003h.004q-1.661 0-1.661 1.942 0 1.808 1.661 1.808 1.592.001 1.592-1.834zm3.6-4.339v2.706q-.48.16-1.058.294c.132.333.211.719.214 1.123v.002c.001.035.002.076.002.118 0 1.057-.369 2.027-.986 2.79l.007-.008c-.653.787-1.571 1.334-2.615 1.503l-.025.003c-.309.044-.582.174-.802.363l.002-.002c-.164.183-.264.426-.264.693 0 .03.001.059.004.088v-.004.02c0 .266.116.505.301.669l.001.001c.217.19.476.337.762.425l.015.004q.475.154 1.051.294t1.152.342c.402.14.749.31 1.072.515l-.021-.012c.328.215.591.504.771.844l.006.012c.191.363.303.793.303 1.249 0 .025 0 .049-.001.074v-.004q.003 4.073-4.855 4.073c-.014 0-.03 0-.046 0-.6 0-1.185-.061-1.75-.177l.056.01c-.586-.121-1.105-.311-1.586-.564l.033.016c-.49-.255-.888-.63-1.165-1.085l-.007-.013c-.274-.464-.436-1.023-.436-1.62 0-.03 0-.06.001-.09v.004q0-2.21 2.438-3.014v-.054c-.543-.327-.901-.913-.901-1.582 0-.037.001-.074.003-.11v.005q0-1.46.844-1.835v-.054c-.705-.271-1.266-.784-1.592-1.436l-.008-.017c-.386-.633-.621-1.396-.64-2.212v-.005c-.001-.033-.001-.071-.001-.11 0-1.174.488-2.235 1.272-2.99l.001-.001c.781-.767 1.853-1.241 3.036-1.241.039 0 .078.001.117.002h-.006.031c.866 0 1.678.234 2.376.642l-.022-.012c1.062-.029 2.062-.259 2.976-.651l-.053.02zm4.259 11.799h-2.971q.054-.602.054-1.794v-8.156q0-1.259-.054-1.714h2.974q-.054.442-.054 1.661v8.21q0 1.192.054 1.794zm8.049-2.974v2.629c-.633.331-1.383.525-2.178.525-.053 0-.107-.001-.16-.003h.008c-.025.001-.055.001-.085.001-.486 0-.949-.099-1.37-.278l.023.009c-.371-.155-.685-.383-.935-.667l-.002-.003c-.235-.295-.417-.644-.524-1.024l-.005-.021c-.115-.357-.202-.775-.246-1.206l-.002-.026q-.054-.59-.054-1.379v-4.704h.026v-.054q-.094 0-.254-.014t-.24-.014c-.285.008-.558.037-.823.085l.033-.005v-2.544h1.286v-1.018c.001-.033.001-.072.001-.111 0-.381-.029-.756-.086-1.122l.005.041h3.04c-.054.537-.085 1.16-.085 1.791 0 .147.002.294.005.44v-.022h2.288v2.545q-.201 0-.582-.026t-.569-.026h-1.135v4.888q0 1.754 1.165 1.754h.036c.532 0 1.026-.165 1.432-.447l-.008.005zm-7.712-12.682v.023c0 .517-.199.987-.524 1.339l.001-.001c-.306.357-.758.583-1.263.583-.008 0-.016 0-.024 0h.001c-.007 0-.015 0-.024 0-.513 0-.973-.225-1.287-.581l-.002-.002c-.332-.348-.536-.821-.536-1.341 0-.007 0-.013 0-.02v.001c0-.007 0-.015 0-.023 0-.523.201-1 .53-1.356l-.001.001c.314-.362.774-.59 1.288-.59h.033-.002.029c.508 0 .962.231 1.262.594l.002.003c.32.358.515.833.515 1.354v.02-.001z"></path>

  </symbol>

  <symbol id="github" xmlns="http://www.w3.org/2000/svg" viewBox="0 0 64 64">

    <path stroke-width="0" fill="currentColor" d="M32 0 C14 0 0 14 0 32 0 53 19 62 22 62 24 62 24 61 24 60 L24 55 C17 57 14 53 13 50 13 50 13 49 11 47 10 46 6 44 10 44 13 44 15 48 15 48 18 52 22 51 24 50 24 48 26 46 26 46 18 45 12 42 12 31 12 27 13 24 15 22 15 22 13 18 15 13 15 13 20 13 24 17 27 15 37 15 40 17 44 13 49 13 49 13 51 20 49 22 49 22 51 24 52 27 52 31 52 42 45 45 38 46 39 47 40 49 40 52 L40 60 C40 61 40 62 42 62 45 62 64 53 64 32 64 14 50 0 32 0 Z"></path>

  </symbol>

  <symbol version="1.1" id="html-5-logo" xmlns="http://www.w3.org/2000/svg" xmlns:xlink="http://www.w3.org/1999/xlink" x="0px" y="0px" xml:space="preserve" viewBox="0 0 512 512">

    <g>

      <g>

        <path d="M224,298.667c-5.888,0-10.667,4.779-10.667,10.667v32h-42.667v-32c0-5.888-4.779-10.667-10.667-10.667

			s-10.667,4.779-10.667,10.667v85.333c0,5.888,4.779,10.667,10.667,10.667s10.667-4.779,10.667-10.667v-32h42.667v32

			c0,5.888,4.779,10.667,10.667,10.667s10.667-4.779,10.667-10.667v-85.333C234.667,303.445,229.888,298.667,224,298.667z"></path>

      </g>

    </g>

    <g>

      <g>

        <path d="M309.333,298.667h-42.667c-5.888,0-10.667,4.779-10.667,10.667S260.779,320,266.667,320h10.667v74.667

			c0,5.888,4.779,10.667,10.667,10.667s10.667-4.779,10.667-10.667V320h10.667c5.888,0,10.667-4.779,10.667-10.667

			S315.221,298.667,309.333,298.667z"></path>

      </g>

    </g>

    <g>

      <g>

        <path d="M420.075,299.477c-3.989-1.685-8.555-0.747-11.627,2.304L384,326.229l-24.448-24.448

			c-3.051-3.029-7.637-3.968-11.627-2.304c-3.989,1.643-6.592,5.547-6.592,9.856v85.333c0,5.888,4.779,10.667,10.667,10.667

			c5.888,0,10.667-4.779,10.667-10.667v-59.584l13.803,13.781c4.16,4.16,10.923,4.16,15.083,0l13.781-13.781v59.584

			c0,5.888,4.779,10.667,10.667,10.667c5.888,0,10.667-4.779,10.667-10.667v-85.333C426.667,305.024,424.064,301.12,420.075,299.477

			z"></path>

      </g>

    </g>

    <g>

      <g>

        <path d="M501.333,384h-32v-74.667c0-5.888-4.779-10.667-10.667-10.667S448,303.445,448,309.333v85.333

			c0,5.888,4.779,10.667,10.667,10.667h42.667c5.888,0,10.667-4.779,10.667-10.667S507.221,384,501.333,384z"></path>

      </g>

    </g>

    <g>

      <g>

        <path d="M373.333,277.333c5.888,0,10.667-4.779,10.667-10.667v-256C384,4.779,379.221,0,373.333,0H138.667

			c-1.429,0-2.837,0.299-4.139,0.832c-0.405,0.171-0.704,0.491-1.067,0.725c-0.811,0.469-1.664,0.896-2.347,1.557l-128,128

			c-0.491,0.491-0.768,1.152-1.152,1.728c-0.384,0.576-0.875,1.067-1.131,1.707C0.299,135.851,0,137.237,0,138.667v362.667

			C0,507.221,4.779,512,10.667,512h362.667c5.888,0,10.667-4.779,10.667-10.667v-64c0-5.888-4.779-10.667-10.667-10.667

			c-5.888,0-10.667,4.779-10.667,10.667v53.333H21.333V149.333h117.333c5.888,0,10.667-4.779,10.667-10.667V21.333h213.333v245.333

			C362.667,272.555,367.445,277.333,373.333,277.333z M128,128H36.416L128,36.416V128z"></path>

      </g>

    </g>

    <g></g>

    <g></g>

    <g></g>

    <g></g>

    <g></g>

    <g></g>

    <g></g>

    <g></g>

    <g></g>

    <g></g>

    <g></g>

    <g></g>

    <g></g>

    <g></g>

    <g></g>

  </symbol>

  <symbol xmlns="http://www.w3.org/2000/svg" viewBox="0 0 32 32" id="javascript-logo">

    <path d="M2 2v28h28v-28zM17.238 23.837c0 2.725-1.6 3.969-3.931 3.969-2.106 0-3.325-1.087-3.95-2.406l2.144-1.294c0.413 0.731 0.788 1.35 1.694 1.35 0.862 0 1.412-0.338 1.412-1.656v-8.944h2.631zM23.462 27.806c-2.444 0-4.025-1.162-4.794-2.688l2.144-1.237c0.563 0.919 1.3 1.6 2.594 1.6 1.087 0 1.788-0.544 1.788-1.3 0-0.9-0.713-1.219-1.919-1.75l-0.656-0.281c-1.9-0.806-3.156-1.825-3.156-3.969 0-1.975 1.506-3.475 3.85-3.475 1.675 0 2.875 0.581 3.738 2.106l-2.050 1.313c-0.45-0.806-0.938-1.125-1.694-1.125-0.768 0-1.256 0.488-1.256 1.125 0 0.788 0.488 1.106 1.619 1.6l0.656 0.281c2.238 0.956 3.494 1.938 3.494 4.137 0 2.363-1.863 3.662-4.357 3.662z"></path>

  </symbol>

  <symbol xmlns="http://www.w3.org/2000/svg" viewBox="0 0 32 32" id="jekyll">

    <path d="M10.766 32c-0.464 0-0.922-0.083-1.359-0.25-1.833-0.703-2.807-2.698-2.302-4.536l-0.021-0.010 0.12-0.302 9.328-24.219c0.141-0.365 0.078-1.214 0.010-1.693-0.021-0.115-0.021-0.214 0.010-0.318l0.010-0.031 0.005-0.021v-0.010l0.016-0.026c0.141-0.385 0.599-0.583 1.344-0.583 0.896 0 2.135 0.281 3.401 0.766 1.063 0.406 2.031 0.917 2.708 1.432 0.802 0.599 1.125 1.141 0.943 1.599l-0.042 0.063-0.021 0.016c-0.057 0.083-0.12 0.161-0.198 0.224-0.422 0.359-1.021 0.979-1.12 1.26l-9.417 24.557-0.026-0.005c-0.656 1.266-1.943 2.073-3.391 2.078h-0.005zM7.849 27.042l-0.026 0.068c-0.599 1.599 0.214 3.411 1.818 4.026 0.359 0.135 0.734 0.203 1.115 0.203 1.297 0 2.443-0.781 2.917-2l0.036-0.083 9.281-24.12c0.193-0.516 1.12-1.359 1.302-1.516l0.021-0.026c0.016-0.016 0.031-0.016 0.031-0.036 0-0.083-0.083-0.359-0.745-0.859-0.641-0.484-1.536-0.964-2.536-1.344-1.161-0.438-2.359-0.719-3.161-0.719-0.521 0-0.698 0.109-0.724 0.172v0.052c0.021 0.135 0.193 1.38-0.047 2.021l-9.281 24.156zM19.781 11.698c0 0-1.286 1.479-2.458 2.016-1.172 0.531-2.036 0.391-3.094 1.005-1.052 0.615-1.583 1.474-1.583 1.474l-4.286 11.146c-0.464 1.26 0.224 2.734 1.5 3.229 1.281 0.49 2.719-0.161 3.219-1.411zM13.208 25.016c0.135-0.057 0.297 0 0.354 0.135 0.057 0.141 0 0.297-0.141 0.354s-0.302 0-0.354-0.141c-0.057-0.125 0-0.286 0.141-0.349zM11.854 22.609c-0.203 0.094-0.443 0-0.531-0.203s0-0.448 0.208-0.531c0.203-0.094 0.448 0 0.531 0.203 0.099 0.203 0.010 0.417-0.208 0.521zM12.234 21.151c-0.161-0.385 0-0.833 0.385-1.010 0.38-0.167 0.818 0 1 0.38 0.161 0.385 0 0.828-0.38 1.005-0.401 0.172-0.839 0-1.021-0.38zM15.469 18.141c0.208-0.099 0.448 0 0.531 0.198 0.094 0.203 0 0.448-0.203 0.531-0.208 0.094-0.448 0-0.531-0.208-0.099-0.198 0-0.443 0.203-0.526zM13.745 16.302c0.141-0.057 0.302 0 0.354 0.135 0.057 0.141 0 0.302-0.135 0.359-0.141 0.052-0.302 0-0.354-0.141-0.057-0.141 0.010-0.302 0.135-0.354zM18.24 1.521c0.135-0.349 1.328-0.219 2.661 0.302 1.333 0.51 2.307 1.208 2.172 1.557-0.135 0.354-1.328 0.219-2.661-0.292-1.339-0.516-2.313-1.214-2.172-1.568z"></path>

  </symbol>

  <symbol id="rs_school_js" xmlns="http://www.w3.org/2000/svg" xmlns:xlink="http://www.w3.org/1999/xlink" viewBox="0 0 552.8 205.3">

    <title>rs_school_js</title>

    <path d="M285.4 68l26.3-1.7c.6 4.3 1.7 7.5 3.5 9.8 2.9 3.6 6.9 5.4 12.2 5.4 3.9 0 7-.9 9.1-2.8 2-1.5 3.2-3.9 3.2-6.4 0-2.4-1.1-4.7-3-6.2-2-1.8-6.7-3.6-14.1-5.2-12.1-2.7-20.8-6.3-25.9-10.9-5.1-4.3-8-10.6-7.8-17.3 0-4.6 1.4-9.2 4-13 3-4.3 7.1-7.7 12-9.6 5.3-2.3 12.7-3.5 22-3.5 11.4 0 20.1 2.1 26.1 6.4 6 4.2 9.6 11 10.7 20.3l-26 1.5c-.7-4-2.1-6.9-4.4-8.8s-5.3-2.8-9.2-2.8c-3.2 0-5.6.7-7.2 2-1.5 1.2-2.5 3-2.4 5 0 1.5.8 2.9 2 3.8 1.3 1.2 4.4 2.3 9.3 3.3 12.1 2.6 20.7 5.2 26 7.9 5.3 2.7 9.1 6 11.4 9.9 2.4 4 3.6 8.6 3.5 13.3 0 5.6-1.6 11.2-4.8 15.9-3.3 4.9-7.9 8.7-13.3 11-5.7 2.5-12.9 3.8-21.5 3.8-15.2 0-25.7-2.9-31.6-8.8S286.1 77 285.4 68zM6.3 97.6V8.2h46.1c8.5 0 15.1.7 19.6 2.2 4.4 1.4 8.3 4.3 10.9 8.2 2.9 4.3 4.3 9.3 4.2 14.5.3 8.8-4.2 17.2-11.9 21.6-3 1.7-6.3 2.9-9.7 3.5 2.5.7 5 1.9 7.2 3.3 1.7 1.4 3.1 3 4.4 4.7 1.5 1.7 2.8 3.6 3.9 5.6l13.4 25.9H63L48.2 70.2c-1.9-3.5-3.5-5.8-5-6.9-2-1.4-4.4-2.1-6.8-2.1H34v36.3H6.3zM34 44.4h11.7c2.5-.2 4.9-.6 7.3-1.2 1.8-.3 3.4-1.3 4.5-2.8 2.7-3.6 2.3-8.7-1-11.8-1.8-1.5-5.3-2.3-10.3-2.3H34v18.1zM0 174.2l26.3-1.7c.6 4.3 1.7 7.5 3.5 9.8 2.8 3.6 6.9 5.5 12.2 5.5 3.9 0 7-.9 9.1-2.8 2-1.6 3.2-3.9 3.2-6.4 0-2.4-1.1-4.7-3-6.2-2-1.8-6.7-3.6-14.2-5.2-12.1-2.7-20.8-6.3-25.9-10.9-5.1-4.3-8-10.6-7.8-17.3 0-4.6 1.4-9.2 4-13 3-4.3 7.1-7.7 12-9.6 5.3-2.3 12.7-3.5 22-3.5 11.4 0 20.1 2.1 26.1 6.4s9.5 11 10.6 20.3l-26 1.5c-.7-4-2.1-6.9-4.4-8.8-2.2-1.9-5.3-2.8-9.2-2.7-3.2 0-5.6.7-7.2 2.1-1.6 1.2-2.5 3-2.4 5 0 1.5.8 2.9 2 3.8 1.3 1.2 4.4 2.3 9.3 3.3 12.1 2.6 20.7 5.2 26 7.9 5.3 2.7 9.1 6 11.4 9.9 2.4 4 3.6 8.6 3.6 13.2 0 5.6-1.7 11.1-4.8 15.8-3.3 4.9-7.9 8.7-13.3 11-5.7 2.5-12.9 3.8-21.5 3.8-15.2 0-25.7-2.9-31.6-8.8-5.9-6-9.2-13.4-10-22.4z"></path>

    <path d="M133 167.2l24.2 7.3c-1.3 6.1-4 11.9-7.7 17-3.4 4.5-7.9 8-13 10.3-5.2 2.3-11.8 3.5-19.8 3.5-9.7 0-17.7-1.4-23.8-4.2-6.2-2.8-11.5-7.8-16-14.9-4.5-7.1-6.7-16.2-6.7-27.3 0-14.8 3.9-26.2 11.8-34.1s19-11.9 33.4-11.9c11.3 0 20.1 2.3 26.6 6.8 6.4 4.6 11.2 11.6 14.4 21l-24.4 5.4c-.6-2.1-1.5-4.2-2.7-6-1.5-2.1-3.4-3.7-5.7-4.9-2.3-1.2-4.9-1.7-7.5-1.7-6.3 0-11.1 2.5-14.4 7.6-2.5 3.7-3.8 9.6-3.8 17.6 0 9.9 1.5 16.7 4.5 20.4 3 3.7 7.2 5.5 12.7 5.5 5.3 0 9.3-1.5 12-4.4 2.7-3.1 4.7-7.4 5.9-13zm56.5-52.8h27.6v31.3h30.2v-31.3h27.8v89.4h-27.8v-36.2h-30.2v36.2h-27.6v-89.4z"></path>

    <path d="M271.3 159.1c0-14.6 4.1-26 12.2-34.1 8.1-8.1 19.5-12.2 34-12.2 14.9 0 26.3 4 34.4 12S364 144 364 158.4c0 10.5-1.8 19-5.3 25.7-3.4 6.6-8.7 12-15.2 15.6-6.7 3.7-15 5.6-24.9 5.6-10.1 0-18.4-1.6-25-4.8-6.8-3.4-12.4-8.7-16.1-15.2-4.1-7-6.2-15.7-6.2-26.2zm27.6.1c0 9 1.7 15.5 5 19.5 3.3 3.9 7.9 5.9 13.7 5.9 5.9 0 10.5-1.9 13.8-5.8s4.9-10.8 4.9-20.8c0-8.4-1.7-14.6-5.1-18.4-3.4-3.9-8-5.8-13.8-5.8-5.1-.2-10 2-13.4 5.9-3.4 3.9-5.1 10.4-5.1 19.5zm93.4-.1c0-14.6 4.1-26 12.2-34.1 8.1-8.1 19.5-12.2 34-12.2 14.9 0 26.4 4 34.4 12S485 144 485 158.4c0 10.5-1.8 19-5.3 25.7-3.4 6.6-8.7 12-15.2 15.6-6.7 3.7-15 5.6-24.9 5.6-10.1 0-18.4-1.6-25-4.8-6.8-3.4-12.4-8.7-16.1-15.2-4.1-7-6.2-15.7-6.2-26.2zm27.6.1c0 9 1.7 15.5 5 19.5 3.3 3.9 7.9 5.9 13.7 5.9 5.9 0 10.5-1.9 13.8-5.8 3.3-3.9 4.9-10.8 4.9-20.8 0-8.4-1.7-14.6-5.1-18.4-3.4-3.9-8-5.8-13.8-5.8-5.1-.2-10.1 2-13.4 5.9-3.4 3.9-5.1 10.4-5.1 19.5z"></path>

    <path d="M482.1 114.4h27.6v67.4h43.1v22H482v-89.4z"></path>

    <ellipse transform="rotate(-37.001 420.46 67.88)" cx="420.5" cy="67.9" rx="63" ry="51.8"></ellipse>

    <defs>

      <ellipse id="SVGID_1_" transform="rotate(-37.001 420.46 67.88)" cx="420.5" cy="67.9" rx="63" ry="51.8"></ellipse>

    </defs>

    <clipPath id="SVGID_2_">

      <use xlink:href="#SVGID_1_" overflow="visible"></use>

    </clipPath>

    <g>

      <path transform="rotate(-37.001 420.82 68.353)" d="M330.9-14.2h179.8v165.1H330.9z"></path>

      <g id="Layer_2_1_">

        <defs>

          <path id="SVGID_3_" transform="rotate(-37.001 420.82 68.353)" d="M330.9-14.2h179.8v165.1H330.9z"></path>

        </defs>

        <clipPath id="SVGID_4_">

          <use xlink:href="#SVGID_3_" overflow="visible"></use>

        </clipPath>

        <g id="Layer_1-2">

          <ellipse transform="rotate(-37.001 420.46 67.88)" cx="420.5" cy="67.9" rx="63" ry="51.8"></ellipse>

          <defs>

            <ellipse id="SVGID_5_" transform="rotate(-37.001 420.46 67.88)" cx="420.5" cy="67.9" rx="63" ry="51.8"></ellipse>

          </defs>

          <clipPath id="SVGID_6_">

            <use xlink:href="#SVGID_5_" overflow="visible"></use>

          </clipPath>

          <g>

            <path transform="rotate(-37 420.799 68.802)" d="M357.8 17h125.9v103.7H357.8z"></path>

            <defs>

              <path id="SVGID_7_" transform="rotate(-37 420.799 68.802)" d="M357.8 17h125.9v103.7H357.8z"></path>

            </defs>

            <clipPath id="SVGID_8_">

              <use xlink:href="#SVGID_7_" overflow="visible"></use>

            </clipPath>

            <g>

              <ellipse transform="rotate(-37.001 420.46 67.88)" cx="420.5" cy="67.9" rx="63" ry="51.8"></ellipse>

            </g>

            <path transform="rotate(-37 420.799 68.802)" d="M357.8 17h125.9v103.7H357.8z"></path>

            <ellipse transform="rotate(-37.001 420.46 67.88)" cx="420.5" cy="67.9" rx="63" ry="51.8"></ellipse>

            <path transform="rotate(-37 420.799 68.802)" d="M357.8 17h125.9v103.7H357.8z"></path>

            <defs>

              <path id="SVGID_9_" transform="rotate(-37 420.799 68.802)" d="M357.8 17h125.9v103.7H357.8z"></path>

            </defs>

            <clipPath id="SVGID_10_">

              <use xlink:href="#SVGID_9_" overflow="visible"></use>

            </clipPath>

            <g>

              <ellipse transform="rotate(-37.001 420.46 67.88)" cx="420.5" cy="67.9" rx="63" ry="51.8"></ellipse>

            </g>

            <path transform="rotate(-37 420.799 68.802)" d="M357.8 17h125.9v103.7H357.8z"></path>

            <path transform="rotate(-37.001 420.82 68.353)" d="M330.9-14.2h179.8v165.1H330.9z"></path>

          </g>

          <ellipse transform="rotate(-37.001 420.46 67.88)" cx="420.5" cy="67.9" rx="63" ry="51.8"></ellipse>

          <path d="M392.4 61.3l10-7 12.3 17.5c2.1 2.8 3.7 5.8 4.9 9.1.7 2.5.5 5.2-.5 7.6-1.3 3-3.4 5.5-6.2 7.3-3.3 2.3-6.1 3.6-8.5 4-2.3.4-4.7 0-6.9-1-2.4-1.2-4.5-2.9-6.1-5.1l8.6-8c.7 1.1 1.6 2.1 2.6 2.9.7.5 1.5.8 2.4.8.7 0 1.4-.3 1.9-.7 1-.6 1.7-1.8 1.6-3-.3-1.7-1-3.4-2.1-4.7l-14-19.7zm30 11.1l9.1-7.2c1 1.2 2.3 2.1 3.7 2.6 2 .6 4.1.2 5.8-1.1 1.2-.8 2.2-1.9 2.6-3.3.6-1.8-.4-3.8-2.2-4.4-.3-.1-.6-.2-.9-.2-1.2-.1-3.3.4-6.4 1.7-5.1 2.1-9.1 2.9-12.1 2.6-2.9-.3-5.6-1.8-7.2-4.3-1.2-1.7-1.8-3.7-1.9-5.7 0-2.3.6-4.6 1.9-6.5 1.9-2.7 4.2-5 7-6.8 4.2-2.9 7.9-4.3 11.1-4.3 3.2 0 6.2 1.5 9 4.6l-9 7.1c-1.8-2.3-5.2-2.8-7.5-1l-.3.3c-1 .6-1.7 1.5-2.1 2.6-.3.8-.1 1.7.4 2.4.4.5 1 .9 1.7.9.8.1 2.2-.3 4.2-1.2 5-2.1 8.8-3.3 11.4-3.7 2.2-.4 4.5-.2 6.6.7 1.9.8 3.5 2.2 4.6 3.9 1.4 2 2.2 4.4 2.3 6.9.1 2.6-.6 5.1-2 7.3-1.8 2.7-4.1 5-6.8 6.8-5.5 3.8-10 5.4-13.6 4.8-3.9-.6-7.1-2.6-9.4-5.5z"></path>

        </g>

      </g>

    </g>

  </symbol>

  <symbol xmlns="http://www.w3.org/2000/svg" viewBox="0 0 32 32" id="ubuntu">

    <path d="M16.672 0c-0.208 0-0.421 0.011-0.641 0.027-5.635 0.447-4.14 6.411-4.224 8.4-0.104 1.453-0.4 2.604-1.4 4.027-1.183 1.401-2.839 3.667-3.625 6.025-0.369 1.109-0.547 2.251-0.38 3.324-0.052 0.041-0.104 0.088-0.151 0.176-0.344 0.36-0.6 0.803-0.881 1.12-0.265 0.265-0.645 0.355-1.063 0.532-0.416 0.181-0.88 0.359-1.151 0.911-0.12 0.251-0.183 0.521-0.177 0.803 0 0.26 0.037 0.531 0.073 0.713 0.079 0.531 0.156 0.969 0.052 1.292-0.333 0.905-0.369 1.525-0.14 1.979 0.233 0.448 0.713 0.625 1.249 0.803 1.084 0.265 2.547 0.181 3.704 0.796 1.233 0.625 2.489 0.896 3.489 0.631 0.697-0.156 1.291-0.62 1.609-1.26 0.781-0.005 1.64-0.36 3.011-0.448 0.932-0.079 2.099 0.359 3.437 0.265 0.036 0.183 0.083 0.265 0.156 0.448v0.005c0.52 1.036 1.484 1.505 2.516 1.427 1.025-0.083 2.119-0.713 3.004-1.744 0.844-1.016 2.245-1.444 3.172-2 0.464-0.267 0.839-0.625 0.865-1.141 0.031-0.531-0.265-1.083-0.948-1.833v-0.131l-0.005-0.005c-0.229-0.265-0.333-0.713-0.453-1.233-0.115-0.537-0.24-1.047-0.656-1.396-0.084-0.073-0.167-0.089-0.255-0.177-0.073-0.052-0.163-0.083-0.251-0.088 0.573-1.704 0.349-3.396-0.235-4.923-0.708-1.88-1.953-3.52-2.896-4.645-1.063-1.339-2.104-2.609-2.083-4.489 0.036-2.871 0.317-8.177-4.724-8.188zM17.375 4.541h0.021c0.281 0 0.525 0.084 0.776 0.261 0.255 0.181 0.443 0.443 0.583 0.713 0.141 0.344 0.215 0.609 0.224 0.963 0-0.025 0.005-0.052 0.005-0.077v0.14c0-0.011-0.005-0.020-0.005-0.031l-0.005-0.032c0 0.324-0.067 0.647-0.197 0.943-0.063 0.167-0.156 0.319-0.287 0.448-0.036-0.020-0.073-0.041-0.115-0.057-0.14-0.063-0.265-0.083-0.38-0.176-0.093-0.037-0.192-0.068-0.292-0.089 0.063-0.077 0.193-0.177 0.245-0.265 0.068-0.167 0.104-0.349 0.115-0.536v-0.027c0.005-0.177-0.027-0.359-0.084-0.531-0.057-0.177-0.129-0.267-0.239-0.443-0.115-0.089-0.224-0.177-0.36-0.177h-0.020c-0.125 0-0.235 0.036-0.349 0.177-0.125 0.124-0.219 0.276-0.271 0.443-0.073 0.172-0.115 0.353-0.12 0.531v0.027c0 0.119 0.011 0.239 0.025 0.359-0.26-0.088-0.583-0.183-0.812-0.271-0.011-0.088-0.021-0.177-0.021-0.265v-0.027c-0.009-0.353 0.057-0.703 0.199-1.025 0.109-0.292 0.307-0.543 0.573-0.709 0.228-0.171 0.504-0.265 0.791-0.265zM13.427 4.62h0.047c0.188 0 0.36 0.063 0.532 0.177 0.197 0.172 0.355 0.385 0.459 0.619 0.12 0.267 0.187 0.537 0.208 0.891v0.005c0.005 0.177 0.005 0.272-0.005 0.355v0.109c-0.041 0.011-0.073 0.021-0.109 0.031-0.203 0.073-0.364 0.177-0.527 0.267 0.016-0.12 0.016-0.24 0.005-0.355v-0.021c-0.015-0.176-0.052-0.265-0.109-0.443-0.041-0.135-0.12-0.26-0.224-0.359-0.063-0.057-0.151-0.089-0.239-0.084h-0.032c-0.093 0.005-0.172 0.052-0.244 0.177-0.089 0.099-0.141 0.224-0.161 0.36-0.037 0.14-0.048 0.291-0.032 0.443v0.015c0.016 0.183 0.047 0.272 0.109 0.448 0.057 0.177 0.131 0.267 0.219 0.355 0.016 0.016 0.027 0.027 0.047 0.031-0.093 0.079-0.156 0.095-0.233 0.183-0.053 0.037-0.109 0.084-0.177 0.095-0.141-0.168-0.261-0.349-0.365-0.537-0.129-0.281-0.197-0.583-0.208-0.891-0.021-0.301 0.016-0.604 0.104-0.891 0.079-0.26 0.204-0.505 0.38-0.713 0.172-0.177 0.344-0.265 0.557-0.265zM15.255 6.896c0.443 0 0.975 0.083 1.62 0.531 0.391 0.267 0.699 0.36 1.407 0.62 0.344 0.183 0.541 0.36 0.64 0.537v-0.177c0.095 0.197 0.105 0.421 0.021 0.624-0.167 0.417-0.688 0.86-1.421 1.125v0.005c-0.355 0.177-0.667 0.443-1.032 0.62-0.369 0.177-0.787 0.391-1.349 0.355-0.203 0.009-0.405-0.021-0.599-0.089-0.145-0.077-0.291-0.167-0.427-0.265-0.26-0.177-0.484-0.443-0.817-0.62v-0.005h-0.005c-0.537-0.328-0.823-0.683-0.917-0.948-0.088-0.359-0.005-0.624 0.261-0.801 0.296-0.177 0.504-0.36 0.64-0.448 0.14-0.099 0.193-0.136 0.235-0.172h0.005v-0.005c0.224-0.271 0.577-0.625 1.12-0.803 0.181-0.047 0.391-0.083 0.619-0.083zM18.984 9.749c0.48 1.891 1.6 4.636 2.319 5.964 0.38 0.713 1.14 2.213 1.468 4.032 0.208-0.005 0.437 0.025 0.683 0.088 0.864-2.229-0.724-4.625-1.448-5.292-0.297-0.265-0.312-0.443-0.167-0.443 0.787 0.708 1.817 2.095 2.192 3.672 0.172 0.713 0.215 1.475 0.032 2.229 0.088 0.036 0.177 0.083 0.271 0.088 1.375 0.715 1.885 1.251 1.64 2.052v-0.057c-0.077-0.004-0.161 0-0.239 0h-0.021c0.204-0.624-0.244-1.104-1.421-1.635-1.219-0.531-2.193-0.448-2.36 0.62-0.011 0.057-0.015 0.088-0.020 0.183-0.095 0.031-0.188 0.067-0.281 0.083-0.573 0.36-0.881 0.896-1.057 1.584-0.172 0.713-0.224 1.541-0.271 2.495-0.032 0.448-0.229 1.119-0.428 1.801-2 1.432-4.776 2.052-7.129 0.448-0.152-0.26-0.329-0.5-0.537-0.713-0.099-0.167-0.224-0.312-0.369-0.443 0.244 0 0.453-0.041 0.62-0.089 0.192-0.093 0.344-0.255 0.421-0.447 0.141-0.355 0-0.928-0.464-1.553-0.457-0.619-1.239-1.323-2.38-2.025-0.843-0.531-1.317-1.161-1.536-1.86-0.219-0.713-0.188-1.448-0.021-2.192 0.328-1.427 1.167-2.817 1.704-3.688 0.14-0.083 0.047 0.183-0.547 1.303-0.527 1-1.521 3.328-0.163 5.135 0.053-1.317 0.344-2.619 0.865-3.833 0.749-1.703 2.323-4.671 2.448-7.025 0.063 0.052 0.287 0.183 0.385 0.271 0.287 0.177 0.505 0.443 0.787 0.62 0.281 0.265 0.635 0.448 1.167 0.448 0.052 0.005 0.099 0.005 0.145 0.005 0.547 0 0.975-0.177 1.328-0.355 0.385-0.183 0.699-0.448 0.989-0.536h0.005c0.62-0.177 1.115-0.537 1.391-0.933zM21.901 21.693c0.052 0.801 0.459 1.661 1.177 1.837 0.781 0.177 1.911-0.443 2.385-1.020l0.281-0.011c0.421-0.011 0.771 0.011 1.129 0.355l0.005 0.005c0.276 0.265 0.407 0.708 0.521 1.167 0.115 0.536 0.203 1.041 0.547 1.421 0.645 0.703 0.859 1.208 0.849 1.521v0c-0.021 0.348-0.251 0.525-0.667 0.791-0.839 0.537-2.328 0.948-3.276 2.095-0.824 0.984-1.828 1.52-2.715 1.588-0.885 0.073-1.651-0.265-2.099-1.197l-0.005-0.005c-0.281-0.532-0.161-1.365 0.073-2.251 0.235-0.891 0.573-1.796 0.62-2.531 0.047-0.953 0.099-1.781 0.255-2.423 0.161-0.62 0.412-1.063 0.86-1.307l0.057-0.032zM7.479 21.76h0.016c0.073 0 0.141 0.005 0.208 0.021 0.5 0.073 0.943 0.443 1.365 1l1.213 2.219 0.005 0.005c0.323 0.708 1.005 1.416 1.583 2.183 0.579 0.796 1.027 1.509 0.975 2.093v0.011c-0.079 0.989-0.641 1.525-1.5 1.724-0.86 0.177-2.027 0-3.193-0.62-1.291-0.713-2.828-0.625-3.812-0.803-0.489-0.088-0.812-0.271-0.964-0.536-0.145-0.265-0.151-0.803 0.167-1.641v-0.004c0.156-0.448 0.043-1.005-0.036-1.495-0.073-0.532-0.109-0.944 0.057-1.251 0.213-0.448 0.531-0.531 0.921-0.713 0.391-0.177 0.855-0.265 1.219-0.625h0.005v-0.005c0.339-0.353 0.595-0.796 0.891-1.115 0.251-0.271 0.505-0.448 0.88-0.448zM17.027 9.661c-0.579 0.265-1.261 0.713-1.985 0.713s-1.292-0.353-1.703-0.62c-0.208-0.181-0.375-0.359-0.5-0.448-0.219-0.176-0.193-0.447-0.099-0.447 0.145 0.020 0.172 0.181 0.265 0.271 0.131 0.088 0.287 0.265 0.479 0.443 0.391 0.265 0.912 0.624 1.557 0.624 0.647 0 1.407-0.359 1.865-0.624 0.26-0.177 0.593-0.443 0.864-0.62 0.208-0.183 0.199-0.36 0.369-0.36 0.172 0.021 0.048 0.177-0.192 0.443-0.245 0.183-0.62 0.448-0.921 0.625zM15.584 7.547v-0.025c-0.005-0.027 0.015-0.057 0.041-0.068 0.093-0.057 0.239-0.037 0.344 0.005 0.083 0 0.213 0.088 0.203 0.181-0.011 0.063-0.115 0.089-0.183 0.089-0.072 0-0.125-0.057-0.187-0.093-0.068-0.021-0.199-0.011-0.219-0.089zM14.849 7.547c-0.027 0.079-0.152 0.068-0.219 0.089-0.063 0.036-0.115 0.093-0.188 0.093-0.068 0-0.177-0.027-0.183-0.093-0.009-0.089 0.115-0.177 0.199-0.177 0.109-0.043 0.244-0.063 0.348-0.005 0.021 0.011 0.048 0.041 0.037 0.068v0.025z"></path>

  </symbol>

  <symbol version="1.1" id="email" xmlns="http://www.w3.org/2000/svg" xmlns:xlink="http://www.w3.org/1999/xlink" x="0px" y="0px" xml:space="preserve" viewBox="0 0 299.997 299.997">

    <g>

      <g>

        <path d="M149.996,0C67.157,0,0.001,67.158,0.001,149.997c0,82.837,67.156,150,149.995,150s150-67.163,150-150

			C299.996,67.158,232.835,0,149.996,0z M149.999,52.686l88.763,55.35H61.236L149.999,52.686z M239.868,196.423h-0.009

			c0,8.878-7.195,16.072-16.072,16.072H76.211c-8.878,0-16.072-7.195-16.072-16.072v-84.865c0-0.939,0.096-1.852,0.252-2.749

			l84.808,52.883c0.104,0.065,0.215,0.109,0.322,0.169c0.112,0.062,0.226,0.122,0.34,0.179c0.599,0.309,1.216,0.558,1.847,0.721

			c0.065,0.018,0.13,0.026,0.195,0.041c0.692,0.163,1.393,0.265,2.093,0.265h0.005c0.005,0,0.01,0,0.01,0

			c0.7,0,1.401-0.099,2.093-0.265c0.065-0.016,0.13-0.023,0.195-0.041c0.63-0.163,1.245-0.412,1.847-0.721

			c0.114-0.057,0.228-0.117,0.34-0.179c0.106-0.06,0.218-0.104,0.322-0.169l84.808-52.883c0.156,0.897,0.252,1.808,0.252,2.749

			V196.423z"></path>

      </g>

    </g>

    <g></g>

    <g></g>

    <g></g>

    <g></g>

    <g></g>

    <g></g>

    <g></g>

    <g></g>

    <g></g>

    <g></g>

    <g></g>

    <g></g>

    <g></g>

    <g></g>

    <g></g>

  </symbol>

  <symbol xmlns="http://www.w3.org/2000/svg" viewBox="0 0 20 20" id="linkedin">

    <path d="M10 .4C4.698.4.4 4.698.4 10s4.298 9.6 9.6 9.6 9.6-4.298 9.6-9.6S15.302.4 10 .4zM7.65 13.979H5.706V7.723H7.65v6.256zm-.984-7.024c-.614 0-1.011-.435-1.011-.973 0-.549.409-.971 1.036-.971s1.011.422 1.023.971c0 .538-.396.973-1.048.973zm8.084 7.024h-1.944v-3.467c0-.807-.282-1.355-.985-1.355-.537 0-.856.371-.997.728-.052.127-.065.307-.065.486v3.607H8.814v-4.26c0-.781-.025-1.434-.051-1.996h1.689l.089.869h.039c.256-.408.883-1.01 1.932-1.01 1.279 0 2.238.857 2.238 2.699v3.699z"></path>

  </symbol>

  <symbol id="rs_school_js" xmlns="http://www.w3.org/2000/svg" xmlns:xlink="http://www.w3.org/1999/xlink" viewBox="0 0 552.8 205.3">

    <title>rs_school_js</title>

    <path d="M285.4 68l26.3-1.7c.6 4.3 1.7 7.5 3.5 9.8 2.9 3.6 6.9 5.4 12.2 5.4 3.9 0 7-.9 9.1-2.8 2-1.5 3.2-3.9 3.2-6.4 0-2.4-1.1-4.7-3-6.2-2-1.8-6.7-3.6-14.1-5.2-12.1-2.7-20.8-6.3-25.9-10.9-5.1-4.3-8-10.6-7.8-17.3 0-4.6 1.4-9.2 4-13 3-4.3 7.1-7.7 12-9.6 5.3-2.3 12.7-3.5 22-3.5 11.4 0 20.1 2.1 26.1 6.4 6 4.2 9.6 11 10.7 20.3l-26 1.5c-.7-4-2.1-6.9-4.4-8.8s-5.3-2.8-9.2-2.8c-3.2 0-5.6.7-7.2 2-1.5 1.2-2.5 3-2.4 5 0 1.5.8 2.9 2 3.8 1.3 1.2 4.4 2.3 9.3 3.3 12.1 2.6 20.7 5.2 26 7.9 5.3 2.7 9.1 6 11.4 9.9 2.4 4 3.6 8.6 3.5 13.3 0 5.6-1.6 11.2-4.8 15.9-3.3 4.9-7.9 8.7-13.3 11-5.7 2.5-12.9 3.8-21.5 3.8-15.2 0-25.7-2.9-31.6-8.8S286.1 77 285.4 68zM6.3 97.6V8.2h46.1c8.5 0 15.1.7 19.6 2.2 4.4 1.4 8.3 4.3 10.9 8.2 2.9 4.3 4.3 9.3 4.2 14.5.3 8.8-4.2 17.2-11.9 21.6-3 1.7-6.3 2.9-9.7 3.5 2.5.7 5 1.9 7.2 3.3 1.7 1.4 3.1 3 4.4 4.7 1.5 1.7 2.8 3.6 3.9 5.6l13.4 25.9H63L48.2 70.2c-1.9-3.5-3.5-5.8-5-6.9-2-1.4-4.4-2.1-6.8-2.1H34v36.3H6.3zM34 44.4h11.7c2.5-.2 4.9-.6 7.3-1.2 1.8-.3 3.4-1.3 4.5-2.8 2.7-3.6 2.3-8.7-1-11.8-1.8-1.5-5.3-2.3-10.3-2.3H34v18.1zM0 174.2l26.3-1.7c.6 4.3 1.7 7.5 3.5 9.8 2.8 3.6 6.9 5.5 12.2 5.5 3.9 0 7-.9 9.1-2.8 2-1.6 3.2-3.9 3.2-6.4 0-2.4-1.1-4.7-3-6.2-2-1.8-6.7-3.6-14.2-5.2-12.1-2.7-20.8-6.3-25.9-10.9-5.1-4.3-8-10.6-7.8-17.3 0-4.6 1.4-9.2 4-13 3-4.3 7.1-7.7 12-9.6 5.3-2.3 12.7-3.5 22-3.5 11.4 0 20.1 2.1 26.1 6.4s9.5 11 10.6 20.3l-26 1.5c-.7-4-2.1-6.9-4.4-8.8-2.2-1.9-5.3-2.8-9.2-2.7-3.2 0-5.6.7-7.2 2.1-1.6 1.2-2.5 3-2.4 5 0 1.5.8 2.9 2 3.8 1.3 1.2 4.4 2.3 9.3 3.3 12.1 2.6 20.7 5.2 26 7.9 5.3 2.7 9.1 6 11.4 9.9 2.4 4 3.6 8.6 3.6 13.2 0 5.6-1.7 11.1-4.8 15.8-3.3 4.9-7.9 8.7-13.3 11-5.7 2.5-12.9 3.8-21.5 3.8-15.2 0-25.7-2.9-31.6-8.8-5.9-6-9.2-13.4-10-22.4z"></path>

    <path d="M133 167.2l24.2 7.3c-1.3 6.1-4 11.9-7.7 17-3.4 4.5-7.9 8-13 10.3-5.2 2.3-11.8 3.5-19.8 3.5-9.7 0-17.7-1.4-23.8-4.2-6.2-2.8-11.5-7.8-16-14.9-4.5-7.1-6.7-16.2-6.7-27.3 0-14.8 3.9-26.2 11.8-34.1s19-11.9 33.4-11.9c11.3 0 20.1 2.3 26.6 6.8 6.4 4.6 11.2 11.6 14.4 21l-24.4 5.4c-.6-2.1-1.5-4.2-2.7-6-1.5-2.1-3.4-3.7-5.7-4.9-2.3-1.2-4.9-1.7-7.5-1.7-6.3 0-11.1 2.5-14.4 7.6-2.5 3.7-3.8 9.6-3.8 17.6 0 9.9 1.5 16.7 4.5 20.4 3 3.7 7.2 5.5 12.7 5.5 5.3 0 9.3-1.5 12-4.4 2.7-3.1 4.7-7.4 5.9-13zm56.5-52.8h27.6v31.3h30.2v-31.3h27.8v89.4h-27.8v-36.2h-30.2v36.2h-27.6v-89.4z"></path>

    <path d="M271.3 159.1c0-14.6 4.1-26 12.2-34.1 8.1-8.1 19.5-12.2 34-12.2 14.9 0 26.3 4 34.4 12S364 144 364 158.4c0 10.5-1.8 19-5.3 25.7-3.4 6.6-8.7 12-15.2 15.6-6.7 3.7-15 5.6-24.9 5.6-10.1 0-18.4-1.6-25-4.8-6.8-3.4-12.4-8.7-16.1-15.2-4.1-7-6.2-15.7-6.2-26.2zm27.6.1c0 9 1.7 15.5 5 19.5 3.3 3.9 7.9 5.9 13.7 5.9 5.9 0 10.5-1.9 13.8-5.8s4.9-10.8 4.9-20.8c0-8.4-1.7-14.6-5.1-18.4-3.4-3.9-8-5.8-13.8-5.8-5.1-.2-10 2-13.4 5.9-3.4 3.9-5.1 10.4-5.1 19.5zm93.4-.1c0-14.6 4.1-26 12.2-34.1 8.1-8.1 19.5-12.2 34-12.2 14.9 0 26.4 4 34.4 12S485 144 485 158.4c0 10.5-1.8 19-5.3 25.7-3.4 6.6-8.7 12-15.2 15.6-6.7 3.7-15 5.6-24.9 5.6-10.1 0-18.4-1.6-25-4.8-6.8-3.4-12.4-8.7-16.1-15.2-4.1-7-6.2-15.7-6.2-26.2zm27.6.1c0 9 1.7 15.5 5 19.5 3.3 3.9 7.9 5.9 13.7 5.9 5.9 0 10.5-1.9 13.8-5.8 3.3-3.9 4.9-10.8 4.9-20.8 0-8.4-1.7-14.6-5.1-18.4-3.4-3.9-8-5.8-13.8-5.8-5.1-.2-10.1 2-13.4 5.9-3.4 3.9-5.1 10.4-5.1 19.5z"></path>

    <path d="M482.1 114.4h27.6v67.4h43.1v22H482v-89.4z"></path>

    <ellipse transform="rotate(-37.001 420.46 67.88)" cx="420.5" cy="67.9" rx="63" ry="51.8"></ellipse>

    <defs>

      <ellipse id="SVGID_1_" transform="rotate(-37.001 420.46 67.88)" cx="420.5" cy="67.9" rx="63" ry="51.8"></ellipse>

    </defs>

    <clipPath id="SVGID_2_">

      <use xlink:href="#SVGID_1_" overflow="visible"></use>

    </clipPath>

    <g>

      <path transform="rotate(-37.001 420.82 68.353)" d="M330.9-14.2h179.8v165.1H330.9z"></path>

      <g id="Layer_2_1_">

        <defs>

          <path id="SVGID_3_" transform="rotate(-37.001 420.82 68.353)" d="M330.9-14.2h179.8v165.1H330.9z"></path>

        </defs>

        <clipPath id="SVGID_4_">

          <use xlink:href="#SVGID_3_" overflow="visible"></use>

        </clipPath>

        <g id="Layer_1-2">

          <ellipse transform="rotate(-37.001 420.46 67.88)" cx="420.5" cy="67.9" rx="63" ry="51.8"></ellipse>

          <defs>

            <ellipse id="SVGID_5_" transform="rotate(-37.001 420.46 67.88)" cx="420.5" cy="67.9" rx="63" ry="51.8"></ellipse>

          </defs>

          <clipPath id="SVGID_6_">

            <use xlink:href="#SVGID_5_" overflow="visible"></use>

          </clipPath>

          <g>

            <path transform="rotate(-37 420.799 68.802)" d="M357.8 17h125.9v103.7H357.8z"></path>

            <defs>

              <path id="SVGID_7_" transform="rotate(-37 420.799 68.802)" d="M357.8 17h125.9v103.7H357.8z"></path>

            </defs>

            <clipPath id="SVGID_8_">

              <use xlink:href="#SVGID_7_" overflow="visible"></use>

            </clipPath>

            <g>

              <ellipse transform="rotate(-37.001 420.46 67.88)" cx="420.5" cy="67.9" rx="63" ry="51.8"></ellipse>

            </g>

            <path transform="rotate(-37 420.799 68.802)" d="M357.8 17h125.9v103.7H357.8z"></path>

            <ellipse transform="rotate(-37.001 420.46 67.88)" cx="420.5" cy="67.9" rx="63" ry="51.8"></ellipse>

            <path transform="rotate(-37 420.799 68.802)" d="M357.8 17h125.9v103.7H357.8z"></path>

            <defs>

              <path id="SVGID_9_" transform="rotate(-37 420.799 68.802)" d="M357.8 17h125.9v103.7H357.8z"></path>

            </defs>

            <clipPath id="SVGID_10_">

              <use xlink:href="#SVGID_9_" overflow="visible"></use>

            </clipPath>

            <g>

              <ellipse transform="rotate(-37.001 420.46 67.88)" cx="420.5" cy="67.9" rx="63" ry="51.8"></ellipse>

            </g>

            <path transform="rotate(-37 420.799 68.802)" d="M357.8 17h125.9v103.7H357.8z"></path>

            <path transform="rotate(-37.001 420.82 68.353)" d="M330.9-14.2h179.8v165.1H330.9z"></path>

          </g>

          <ellipse transform="rotate(-37.001 420.46 67.88)" cx="420.5" cy="67.9" rx="63" ry="51.8"></ellipse>

          <path d="M392.4 61.3l10-7 12.3 17.5c2.1 2.8 3.7 5.8 4.9 9.1.7 2.5.5 5.2-.5 7.6-1.3 3-3.4 5.5-6.2 7.3-3.3 2.3-6.1 3.6-8.5 4-2.3.4-4.7 0-6.9-1-2.4-1.2-4.5-2.9-6.1-5.1l8.6-8c.7 1.1 1.6 2.1 2.6 2.9.7.5 1.5.8 2.4.8.7 0 1.4-.3 1.9-.7 1-.6 1.7-1.8 1.6-3-.3-1.7-1-3.4-2.1-4.7l-14-19.7zm30 11.1l9.1-7.2c1 1.2 2.3 2.1 3.7 2.6 2 .6 4.1.2 5.8-1.1 1.2-.8 2.2-1.9 2.6-3.3.6-1.8-.4-3.8-2.2-4.4-.3-.1-.6-.2-.9-.2-1.2-.1-3.3.4-6.4 1.7-5.1 2.1-9.1 2.9-12.1 2.6-2.9-.3-5.6-1.8-7.2-4.3-1.2-1.7-1.8-3.7-1.9-5.7 0-2.3.6-4.6 1.9-6.5 1.9-2.7 4.2-5 7-6.8 4.2-2.9 7.9-4.3 11.1-4.3 3.2 0 6.2 1.5 9 4.6l-9 7.1c-1.8-2.3-5.2-2.8-7.5-1l-.3.3c-1 .6-1.7 1.5-2.1 2.6-.3.8-.1 1.7.4 2.4.4.5 1 .9 1.7.9.8.1 2.2-.3 4.2-1.2 5-2.1 8.8-3.3 11.4-3.7 2.2-.4 4.5-.2 6.6.7 1.9.8 3.5 2.2 4.6 3.9 1.4 2 2.2 4.4 2.3 6.9.1 2.6-.6 5.1-2 7.3-1.8 2.7-4.1 5-6.8 6.8-5.5 3.8-10 5.4-13.6 4.8-3.9-.6-7.1-2.6-9.4-5.5z"></path>

        </g>

      </g>

    </g>

  </symbol>

  <symbol xmlns="http://www.w3.org/2000/svg" fill="currentColor" viewBox="0 0 16 16" id="telegram">

    <path d="M16 8A8 8 0 1 1 0 8a8 8 0 0 1 16 0zM8.287 5.906c-.778.324-2.334.994-4.666 2.01-.378.15-.577.298-.595.442-.03.243.275.339.69.47l.175.055c.408.133.958.288 1.243.294.26.006.549-.1.868-.32 2.179-1.471 3.304-2.214 3.374-2.23.05-.012.12-.026.166.016.047.041.042.12.037.141-.03.129-1.227 1.241-1.846 1.817-.193.18-.33.307-.358.336a8.154 8.154 0 0 1-.188.186c-.38.366-.664.64.015 1.088.327.216.589.393.85.571.284.194.568.387.936.629.093.06.183.125.27.187.331.236.63.448.997.414.214-.02.435-.22.547-.82.265-1.417.786-4.486.906-5.751a1.426 1.426 0 0 0-.013-.315.337.337 0 0 0-.114-.217.526.526 0 0 0-.31-.093c-.3.005-.763.166-2.984 1.09z"></path>

  </symbol>

  <symbol fill="none" xmlns="http://www.w3.org/2000/svg" viewBox="0 0 24 24" id="write">
    <path fill-rule="evenodd" clip-rule="evenodd" d="M14.9163 3.50668C15.4832 2.83676 16.5015 2.79441 17.1221 3.41494L18.7029 4.99582C19.2546 5.54746 19.2913 6.42985 18.7874 7.02539L8.38171 19.323C8.33797 19.3747 8.28418 19.4169 8.22362 19.4472L6.11805 20.5H20C20.2762 20.5 20.5 20.7239 20.5 21C20.5 21.2761 20.2762 21.5 20 21.5H4.00001C3.76812 21.5 3.56667 21.3406 3.51339 21.1149C3.46011 20.8892 3.569 20.6565 3.77641 20.5528L7.68461 18.5987L18.024 6.37945C18.1919 6.18094 18.1797 5.88681 17.9958 5.70293L16.4149 4.12204C16.2081 3.9152 15.8686 3.92932 15.6797 4.15262L5.4439 16.2495L4.47436 19.1581C4.38703 19.4201 4.10387 19.5617 3.8419 19.4743C3.57993 19.387 3.43835 19.1039 3.52567 18.8419L4.52567 15.8419C4.54579 15.7815 4.57723 15.7256 4.61832 15.677L14.9163 3.50668Z" fill="black"></path>
  </symbol>

 <svg width="0" height="0" class="hidden">

  <symbol version="1.1" id="slider-next" xmlns="http://www.w3.org/2000/svg" xmlns:xlink="http://www.w3.org/1999/xlink" x="0px" y="0px" xml:space="preserve" viewBox="0 0 490 490">

    <g>

      <g>

        <g>

          <path d="M490,245C490,109.9,380.1,0,245,0S0,109.9,0,245s109.9,245,245,245S490,380.1,490,245z M34.3,245

				c0-116.2,94.5-210.7,210.7-210.7S455.7,128.8,455.7,245S361.2,455.7,245,455.7S34.3,361.2,34.3,245z"></path>

          <path d="M302.3,232.9l-72.1-72.1c-6.7-6.7-17.6-6.7-24.3,0s-6.7,17.6,0,24.3l60,60l-60,60c-6.7,6.7-6.7,17.6,0,24.3

				c3.3,3.3,7.7,5,12.1,5c4.4,0,8.8-1.7,12.1-5l72.1-72.1C309,250.4,309,239.6,302.3,232.9z"></path>

        </g>

      </g>

      <g></g>

      <g></g>

      <g></g>

      <g></g>

      <g></g>

      <g></g>

      <g></g>

      <g></g>

      <g></g>

      <g></g>

      <g></g>

      <g></g>

      <g></g>

      <g></g>

      <g></g>

    </g>

    <g></g>

    <g></g>

    <g></g>

    <g></g>

    <g></g>

    <g></g>

    <g></g>

    <g></g>

    <g></g>

    <g></g>

    <g></g>

    <g></g>

    <g></g>

    <g></g>

    <g></g>

  </symbol>

  <symbol version="1.1" id="slider-prev" xmlns="http://www.w3.org/2000/svg" xmlns:xlink="http://www.w3.org/1999/xlink" x="0px" y="0px" xml:space="preserve" viewBox="0 0 490 490">

    <g>

      <g>

        <g>

          <path d="M245,490c135.1,0,245-109.9,245-245S380.1,0,245,0S0,109.9,0,245S109.9,490,245,490z M245,34.3

				c116.2,0,210.7,94.5,210.7,210.7S361.2,455.7,245,455.7S34.3,361.2,34.3,245S128.8,34.3,245,34.3z"></path>

          <path d="M259.8,329.2c3.3,3.3,7.7,5,12.1,5s8.8-1.7,12.1-5c6.7-6.7,6.7-17.6,0-24.3l-60-60l60-60c6.7-6.7,6.7-17.6,0-24.3

				s-17.6-6.7-24.3,0l-72.1,72.1c-3.2,3.2-5,7.6-5,12.1s1.8,8.9,5,12.1L259.8,329.2z"></path>

        </g>

      </g>

      <g></g>

      <g></g>

      <g></g>

      <g></g>

      <g></g>

      <g></g>

      <g></g>

      <g></g>

      <g></g>

      <g></g>

      <g></g>

      <g></g>

      <g></g>

      <g></g>

      <g></g>

    </g>

    <g></g>

    <g></g>

    <g></g>

    <g></g>

    <g></g>

    <g></g>

    <g></g>

    <g></g>

    <g></g>

    <g></g>

    <g></g>

    <g></g>

    <g></g>

    <g></g>

    <g></g>

  </symbol>

</svg>


</svg>