<svg width="0" height="0" class="hidden">
  <symbol fill="none" xmlns="http://www.w3.org/2000/svg" viewBox="-0.5 0 25 25" id="mail">
    <path d="M9.00977 21.39H19.0098C20.0706 21.39 21.0881 20.9685 21.8382 20.2184C22.5883 19.4682 23.0098 18.4509 23.0098 17.39V7.39001C23.0098 6.32915 22.5883 5.31167 21.8382 4.56152C21.0881 3.81138 20.0706 3.39001 19.0098 3.39001H7.00977C5.9489 3.39001 4.93148 3.81138 4.18134 4.56152C3.43119 5.31167 3.00977 6.32915 3.00977 7.39001V12.39"  stroke-width="1.5" stroke-linecap="round" stroke-linejoin="round"></path>
    <path d="M1.00977 18.39H11.0098"  stroke-width="1.5" stroke-linecap="round" stroke-linejoin="round"></path>
    <path d="M1.00977 15.39H5.00977"  stroke-width="1.5" stroke-linecap="round" stroke-linejoin="round"></path>
    <path d="M22.209 5.41992C16.599 16.0599 9.39906 16.0499 3.78906 5.41992"  stroke-width="1.5" stroke-linecap="round" stroke-linejoin="round"></path>
  </symbol>
  <symbol xmlns="http://www.w3.org/2000/svg" stroke-width="3"  fill="none" viewBox="0 0 64 64" id="telegram">
    <path d="M26.67,38.57l-.82,11.54A2.88,2.88,0,0,0,28.14,49l5.5-5.26,11.42,8.35c2.08,1.17,3.55.56,4.12-1.92l7.49-35.12h0c.66-3.09-1.08-4.33-3.16-3.55l-44,16.85C6.47,29.55,6.54,31.23,9,32l11.26,3.5L45.59,20.71c1.23-.83,2.36-.37,1.44.44Z" stroke-linecap="round"></path>
  </symbol>
</svg>