<svg version="1.1" xmlns="http://www.w3.org/2000/svg" viewBox="0 0 705 649" width="705" height="649">
  <!-- svg-source:excalidraw -->
  
  <defs>
    <style>
      @font-face {
        font-family: "Virgil";
        src: url("https://excalidraw.com/FG_Virgil.woff2");
      }
      @font-face {
        font-family: "Cascadia";
        src: url("https://excalidraw.com/Cascadia.woff2");
      }
    </style>
  </defs>
  <rect x="0" y="0" width="705" height="649" fill="#ffffff"></rect><g transform="translate(243 177.5) rotate(0 118.5 48.5)"><path d="M24.25 0 L212.75 0 L223.359375 1.5156249999999998 L227.52734375 3.410156249999999 L230.9375 6.062499999999999 L233.58984375 9.472656249999998 L236.62109375 18.56640625 L237 72.75 L235.484375 83.359375 L233.58984375 87.52734375 L230.9375 90.9375 L227.52734375 93.58984375 L223.359375 95.484375 L212.75 97 L24.25 97 L13.640625 95.484375 L9.472656249999998 93.58984375 L6.062499999999998 90.9375 L3.410156249999999 87.52734375 L0.3789062499999999 78.43359375 L0.37890624999999994 18.56640625 L3.410156249999999 9.472656249999998 L6.062499999999999 6.062499999999998 L9.472656249999998 3.410156249999999 L13.640625 1.5156249999999996 L24.25 0" stroke="none" stroke-width="0" fill="#e5e6e8"></path><path d="M24.25 0 M24.25 0 C77.901112976484 0, 131.552225952968 0, 212.75 0 M24.25 0 C77.85338931102307 0, 131.45677862204613 0, 212.75 0 M212.75 0 C228.91666666666666 0, 237 8.083333333333332, 237 24.25 M212.75 0 C228.91666666666666 0, 237 8.083333333333332, 237 24.25 M237 24.25 C237 38.23098742496222, 237 52.211974849924445, 237 72.75 M237 24.25 C237 40.1645413832739, 237 56.0790827665478, 237 72.75 M237 72.75 C237 88.91666666666667, 228.91666666666666 97, 212.75 97 M237 72.75 C237 88.91666666666667, 228.91666666666666 97, 212.75 97 M212.75 97 C161.528041777201 97, 110.306083554402 97, 24.25 97 M212.75 97 C151.41085994224994 97, 90.07171988449988 97, 24.25 97 M24.25 97 C8.083333333333332 97, 0 88.91666666666667, 0 72.75 M24.25 97 C8.083333333333332 97, 0 88.91666666666667, 0 72.75 M0 72.75 C0 58.770157341845334, 0 44.79031468369067, 0 24.25 M0 72.75 C0 60.49656856488436, 0 48.243137129768726, 0 24.25 M0 24.25 C0 8.083333333333332, 8.083333333333332 0, 24.25 0 M0 24.25 C0 8.083333333333332, 8.083333333333332 0, 24.25 0" stroke="#000000" stroke-width="2" fill="none"></path></g><g transform="translate(284 201.5) rotate(0 80 24)"><text x="80" y="17" font-family="Helvetica, Segoe UI Emoji" font-size="20px" fill="#000000" text-anchor="middle" style="white-space: pre;" direction="ltr">человек</text><text x="80" y="41" font-family="Helvetica, Segoe UI Emoji" font-size="20px" fill="#000000" text-anchor="middle" style="white-space: pre;" direction="ltr">в торговой точке </text></g><g transform="translate(259 10) rotate(0 73 9.5)"><text x="73" y="13" font-family="Helvetica, Segoe UI Emoji" font-size="16px" fill="#000000" text-anchor="middle" style="white-space: pre;" direction="ltr">сотни предложений</text></g><g transform="translate(356 54) rotate(0 117 19)"><text x="117" y="13" font-family="Helvetica, Segoe UI Emoji" font-size="16px" fill="#000000" text-anchor="middle" style="white-space: pre;" direction="ltr">много решений / времени мало</text><text x="117" y="32" font-family="Helvetica, Segoe UI Emoji" font-size="16px" fill="#000000" text-anchor="middle" style="white-space: pre;" direction="ltr"></text></g><g transform="translate(561 145) rotate(0 67 9.5)"><text x="67" y="13" font-family="Helvetica, Segoe UI Emoji" font-size="16px" fill="#000000" text-anchor="middle" style="white-space: pre;" direction="ltr">ситуация покупки </text></g><g transform="translate(72 174) rotate(0 51 9.5)"><text x="51" y="13" font-family="Helvetica, Segoe UI Emoji" font-size="16px" fill="#000000" text-anchor="middle" style="white-space: pre;" direction="ltr">опыт покупок </text></g><g transform="translate(10 108) rotate(0 103 9.5)"><text x="103" y="13" font-family="Helvetica, Segoe UI Emoji" font-size="16px" fill="#000000" text-anchor="middle" style="white-space: pre;" direction="ltr">ограниченность V сознания</text></g><g transform="translate(476 95) rotate(0 103 19)"><text x="103" y="13" font-family="Helvetica, Segoe UI Emoji" font-size="16px" fill="#000000" text-anchor="middle" style="white-space: pre;" direction="ltr">психологическое состояние</text><text x="103" y="32" font-family="Helvetica, Segoe UI Emoji" font-size="16px" fill="#000000" text-anchor="middle" style="white-space: pre;" direction="ltr"></text></g><g transform="translate(162 44) rotate(0 40 9.5)"><text x="40" y="13" font-family="Helvetica, Segoe UI Emoji" font-size="16px" fill="#000000" text-anchor="middle" style="white-space: pre;" direction="ltr">мотивация</text></g><g transform="translate(221.5 375) rotate(0 148 36)"><text x="148" y="17" font-family="Helvetica, Segoe UI Emoji" font-size="20px" fill="#000000" text-anchor="middle" style="white-space: pre;" direction="ltr">привычные паттерны выбора, </text><text x="148" y="41" font-family="Helvetica, Segoe UI Emoji" font-size="20px" fill="#000000" text-anchor="middle" style="white-space: pre;" direction="ltr">ограниченный набор категорий,</text><text x="148" y="65" font-family="Helvetica, Segoe UI Emoji" font-size="20px" fill="#000000" text-anchor="middle" style="white-space: pre;" direction="ltr">ограниченный набор объектов</text></g><g transform="translate(240.5 570) rotate(0 118.5 34.5)"><path d="M4.591607522169152 3.99142352427887 C4.591607522169152 3.99142352427887, 4.591607522169152 3.99142352427887, 4.591607522169152 3.99142352427887 M4.591607522169152 3.99142352427887 C4.591607522169152 3.99142352427887, 4.591607522169152 3.99142352427887, 4.591607522169152 3.99142352427887 M4.068693874046256 16.78699155843065 C8.278930633982029 11.94366820287999, 12.489167393917803 7.10034484732933, 17.84593348284691 0.938090373752436 M4.068693874046256 16.78699155843065 C8.839274301090956 11.299066551051514, 13.609854728135659 5.811141543672376, 17.84593348284691 0.938090373752436 M4.2018392549138674 28.827850012359654 C10.973109957047784 21.038394119883574, 17.7443806591817 13.248938227407493, 28.476023327562636 0.9035955441170902 M4.2018392549138674 28.827850012359654 C13.873986181363126 17.701317758172635, 23.546133107812384 6.57478550398562, 28.476023327562636 0.9035955441170902 M4.334984635781478 40.868708466288666 C13.742918362681422 30.04611872963396, 23.150852089581367 19.223528992979254, 39.10611317227837 0.8691007144817462 M4.334984635781478 40.868708466288666 C14.218832523521565 29.498642114454363, 24.10268041126165 18.12857576262006, 39.10611317227837 0.8691007144817462 M1.1878348716965519 56.68311482133153 C16.02925425793285 39.61001484108786, 30.87067364416915 22.5369148608442, 49.73620301699409 0.8346058848464004 M1.1878348716965519 56.68311482133153 C20.00469020913828 35.036798917890536, 38.821545546580005 13.390483014449543, 49.73620301699409 0.8346058848464004 M5.257334426507207 64.19571579392391 C20.791479197226984 46.325726416490426, 36.32562396794676 28.455737039056935, 60.366292861709816 0.8001110552110546 M5.257334426507207 64.19571579392391 C26.68744557251516 39.543192968321534, 48.11755671852311 14.89067014271916, 60.366292861709816 0.8001110552110546 M11.295011068289384 69.44418802584796 C31.079173352898547 46.68511277030015, 50.86333563750771 23.92603751475233, 70.99638270642555 0.7656162255757053 M11.295011068289384 69.44418802584796 C29.35354084735321 48.67022588715314, 47.412070626417034 27.89626374845831, 70.99638270642555 0.7656162255757053 M19.956923826033588 71.67382193688093 C43.62393575882325 44.44803911607706, 67.2909476916129 17.222256295273198, 81.62647255114128 0.731121395940356 M19.956923826033588 71.67382193688093 C39.33998666197566 49.3761588152335, 58.72304949791773 27.078495693586078, 81.62647255114128 0.731121395940356 M30.587013670749318 71.63932710724558 C50.836678226706304 48.34475274524961, 71.0863427826633 25.050178383253645, 92.256562395857 0.6966265663050137 M30.587013670749318 71.63932710724558 C44.105079822878935 56.088570879111984, 57.623145975008555 40.5378146509784, 92.256562395857 0.6966265663050137 M41.21710351546504 71.60483227761023 C64.44976774578886 44.878709331472095, 87.68243197611268 18.15258638533396, 102.88665224057273 0.6621317366696644 M41.21710351546504 71.60483227761023 C57.15962987603228 53.265053621125546, 73.10215623659951 34.925274964640856, 102.88665224057273 0.6621317366696644 M51.84719336018077 71.5703374479749 C65.73725186810884 55.591652966003046, 79.62731037603692 39.6129684840312, 113.51674208528846 0.6276369070343222 M51.84719336018077 71.5703374479749 C73.89874632398106 46.202927588258234, 95.95029928778135 20.835517728541568, 113.51674208528846 0.6276369070343222 M62.4772832048965 71.53584261833954 C75.88975714472895 56.1065563352812, 89.30223108456138 40.67727005222285, 124.14683193000418 0.5931420773989728 M62.4772832048965 71.53584261833954 C84.87551550765085 45.76962379965386, 107.2737478104052 20.003404980968178, 124.14683193000418 0.5931420773989728 M73.10737304961222 71.50134778870421 C92.0323323234374 49.73067253215145, 110.9572915972626 27.959997275598695, 134.7769217747199 0.5586472477636306 M73.10737304961222 71.50134778870421 C90.44751842856053 51.5537923681427, 107.78766380750882 31.606236947581195, 134.7769217747199 0.5586472477636306 M83.73746289432796 71.46685295906886 C97.24575001657807 55.92734621796192, 110.75403713882818 40.38783947685498, 145.40701161943565 0.5241524181282813 M83.73746289432796 71.46685295906886 C103.0894388260138 49.204951229956094, 122.44141475769965 26.943049500843337, 145.40701161943565 0.5241524181282813 M94.36755273904367 71.43235812943351 C107.58953760394486 56.222204460096826, 120.81152246884606 41.01205079076014, 156.03710146415136 0.48965758849293195 M94.36755273904367 71.43235812943351 C112.70394201922613 50.33875519900563, 131.0403312994086 29.245152268577748, 156.03710146415136 0.48965758849293195 M104.9976425837594 71.39786329979816 C120.45373017550428 53.617668435014195, 135.90981776724914 35.83747357023023, 166.66719130886707 0.4551627588575968 M104.9976425837594 71.39786329979816 C125.93601221958087 47.31102437203346, 146.87438185540236 23.224185444268763, 166.66719130886707 0.4551627588575968 M115.62773242847513 71.36336847016281 C136.91408194424676 46.876224482154896, 158.2004314600184 22.389080494146974, 177.29728115358282 0.4206679292222475 M115.62773242847513 71.36336847016281 C131.48383137275624 53.1230131828914, 147.33993031703739 34.88265789561999, 177.29728115358282 0.4206679292222475 M126.25782227319085 71.32887364052746 C147.0855484239737 47.36931548241601, 167.9132745747566 23.40975732430457, 187.92737099829856 0.38617309958689816 M126.25782227319085 71.32887364052746 C139.41311647098144 56.19543880769132, 152.56841066877203 41.06200397485517, 187.92737099829856 0.38617309958689816 M136.88791211790658 71.29437881089211 C152.477497842149 53.36061191205995, 168.06708356639146 35.42684501322779, 198.55746084301427 0.3516782699515488 M136.88791211790658 71.29437881089211 C158.80190814018508 46.08521011089607, 180.71590416246357 20.876041410900022, 198.55746084301427 0.3516782699515488 M147.51800196262232 71.25988398125679 C163.50915517866403 52.86416652649175, 179.50030839470577 34.46844907172671, 208.53149165873947 1.0718930205389938 M147.51800196262232 71.25988398125679 C162.88620004042536 53.58079443663753, 178.25439811822838 35.901704892018266, 208.53149165873947 1.0718930205389938 M158.14809180733806 71.22538915162144 C173.3889140188203 53.69282877946004, 188.6297362303025 36.16026840729863, 219.81764053244572 0.28268861068086437 M158.14809180733806 71.22538915162144 C178.53616236671638 47.77159689591983, 198.9242329260947 24.31780464021822, 219.81764053244572 0.28268861068086437 M168.77818165205377 71.1908943219861 C190.37209172548978 46.34994238513379, 211.9660017989258 21.508990448281473, 228.47955329018993 2.512322521713827 M168.77818165205377 71.1908943219861 C187.62369682896147 49.511609044667416, 206.46921200586917 27.83232376734874, 228.47955329018993 2.512322521713827 M179.4082714967695 71.15639949235074 C201.3972607705753 45.8609609250429, 223.3862500443811 20.565522357735063, 235.17328896096262 7.006085173415116 M179.4082714967695 71.15639949235074 C194.1975661550505 54.143262152381816, 208.98686081333153 37.13012481241289, 235.17328896096262 7.006085173415116 M190.03836134148523 71.1219046627154 C206.0976424026751 52.64781508723988, 222.15692346386496 34.17372551176437, 238.58672948678276 15.273395726230277 M190.03836134148523 71.1219046627154 C200.17824559455534 59.45730216510574, 210.31812984762544 47.79269966749608, 238.58672948678276 15.273395726230277 M200.01239215721046 71.84211941330283 C212.27067067357862 57.74058308115685, 224.52894918994681 43.63904674901087, 238.7198748676504 27.31425418015928 M200.01239215721046 71.84211941330283 C214.9239136440138 54.68837619128702, 229.83543513081713 37.534632969271215, 238.7198748676504 27.31425418015928 M210.64248200192617 71.80762458366749 C216.8446285593074 64.67287112710156, 223.04677511668865 57.538117670535634, 238.85302024851796 39.355112634088286 M210.64248200192617 71.80762458366749 C218.52525648467355 62.73952985746696, 226.40803096742093 53.671435131266435, 238.85302024851796 39.355112634088286 M221.9286308756324 71.01842017380935 C228.11461626533836 63.90225801396087, 234.30060165504432 56.78609585411239, 237.67404757140457 52.90539024846282 M221.9286308756324 71.01842017380935 C226.03050720396598 66.29975123536668, 230.13238353229954 61.58108229692404, 237.67404757140457 52.90539024846282 M6.917854792793371 66.73031964921296 C6.917854792793371 66.73031964921296, 6.917854792793371 66.73031964921296, 6.917854792793371 66.73031964921296 M6.917854792793371 66.73031964921296 C6.917854792793371 66.73031964921296, 6.917854792793371 66.73031964921296, 6.917854792793371 66.73031964921296 M18.95871324672238 66.59717426834536 C13.289024633566504 61.668589149381276, 7.619336020410628 56.7400040304172, 3.109812062044167 52.8199346595447 M18.95871324672238 66.59717426834536 C15.715863644708326 63.77820811658191, 12.473014042694274 60.95924196481847, 3.109812062044167 52.8199346595447 M30.999571700651387 66.46402888747774 C21.47467694453664 58.184164196891864, 11.949782188421889 49.90429950630599, 3.075317232408821 42.18984481482897 M30.999571700651387 66.46402888747774 C23.64980773921069 60.07497654971769, 16.300043777769993 53.68592421195764, 3.075317232408821 42.18984481482897 M43.79513973480316 66.98694253560063 C31.47188598336948 56.274501482735275, 19.1486322319358 45.562060429869916, 3.0408224027734754 31.559754970113246 M43.79513973480316 66.98694253560063 C32.593641139846184 57.24962836333744, 21.39214254488921 47.51231419107425, 3.0408224027734754 31.559754970113246 M55.83599818873217 66.85379715473303 C42.337661621431444 55.1198721941987, 28.839325054130722 43.38594723366437, 3.006327573138128 20.92966512539752 M55.83599818873217 66.85379715473303 C35.176220142950655 48.89452609330832, 14.516442097169147 30.935255031883614, 3.006327573138128 20.92966512539752 M67.87685664266118 66.72065177386541 C49.66772319304452 50.89169355898782, 31.458589743427872 35.06273534411022, 1.462413583057237 8.987457222700776 M67.87685664266118 66.72065177386541 C49.79098562676904 50.99884395789549, 31.705114610876905 35.27703614192557, 1.462413583057237 8.987457222700776 M79.91771509659019 66.5875063929978 C61.10624323136828 50.23494338175732, 42.29477136614638 33.88238037051684, 5.956176234758523 2.293721551928093 M79.91771509659019 66.5875063929978 C55.83674303584002 45.65423674686459, 31.75577097508986 24.720967100731386, 5.956176234758523 2.293721551928093 M92.71328313074196 67.1104200411207 C70.57488053544773 47.86580026859511, 48.436477940153516 28.621180496069506, 12.714067627128125 -2.4318370318730684 M92.71328313074196 67.1104200411207 C65.36740926881006 43.33901455894791, 38.02153540687818 19.567609076775113, 12.714067627128125 -2.4318370318730684 M104.75414158467098 66.9772746602531 C74.0922996098497 40.32334207452408, 43.430457635028446 13.669409488795047, 21.736087760166043 -5.189218528702709 M104.75414158467098 66.9772746602531 C77.06975082247186 42.91160092615135, 49.38536006027275 18.845927192049608, 21.736087760166043 -5.189218528702709 M116.79500003859998 66.84412927938548 C94.38695640175922 47.36511412547253, 71.97891276491846 27.886098971559576, 33.77694621409505 -5.322363909570317 M116.79500003859998 66.84412927938548 C85.91611945427978 40.00152790882497, 55.03723886995958 13.158926538264446, 33.77694621409505 -5.322363909570317 M128.83585849252898 66.71098389851788 C96.58421329727969 38.67505645753323, 64.33256810203038 10.63912901654858, 45.81780466802405 -5.455509290437931 M128.83585849252898 66.71098389851788 C110.14244521721297 50.46104765376787, 91.44903194189695 34.21111140901786, 45.81780466802405 -5.455509290437931 M140.87671694645798 66.57783851765025 C110.45223630889024 40.130240994466035, 80.0277556713225 13.682643471281821, 58.61337270217584 -4.932595642315032 M140.87671694645798 66.57783851765025 C108.38075170401996 38.329526899861804, 75.88478646158192 10.081215282073366, 58.61337270217584 -4.932595642315032 M153.67228498060976 67.10075216577316 C132.41718728812117 48.62397763070456, 111.16208959563261 30.147203095635952, 70.65423115610484 -5.065741023182639 M153.67228498060976 67.10075216577316 C124.21062511730538 41.490121972550035, 94.748965254001 15.879491779326912, 70.65423115610484 -5.065741023182639 M165.71314343453878 66.96760678490554 C145.05241014372288 49.00750534164108, 124.39167685290698 31.047403898376622, 82.69508961003385 -5.198886404050256 M165.71314343453878 66.96760678490554 C133.57598326101362 39.03119965498431, 101.43882308748849 11.094792525063085, 82.69508961003385 -5.198886404050256 M177.75400188846777 66.83446140403794 C155.13585011548318 47.17280203386787, 132.5176983424986 27.511142663697804, 94.73594806396284 -5.332031784917859 M177.75400188846777 66.83446140403794 C159.44415014275083 50.91795011010492, 141.1342983970339 35.0014388161719, 94.73594806396284 -5.332031784917859 M189.79486034239676 66.70131602317034 C161.93278931982343 42.48118719515355, 134.07071829725012 18.26105836713677, 106.77680651789186 -5.4651771657854695 M189.79486034239676 66.70131602317034 C167.54281665252026 47.35790955425344, 145.29077296264376 28.014503085336536, 106.77680651789186 -5.4651771657854695 M201.83571879632578 66.5681706423027 C177.61047042284488 45.509483510931645, 153.385222049364 24.450796379560593, 119.57237455204363 -4.942263517662575 M201.83571879632578 66.5681706423027 C180.1278748886063 47.697829826737376, 158.4200309808868 28.827489011172055, 119.57237455204363 -4.942263517662575 M214.63128683047756 67.09108429042563 C196.78751178377937 51.579727289754764, 178.94373673708117 36.0683702890839, 131.61323300597263 -5.075408898530185 M214.63128683047756 67.09108429042563 C189.61112423855585 45.3413887712624, 164.5909616466341 23.591693252099176, 131.61323300597263 -5.075408898530185 M227.42685486462932 67.61399793854852 C199.3525337718716 43.209362939419876, 171.2782126791139 18.804727940291222, 143.65409145990165 -5.208554279397788 M227.42685486462932 67.61399793854852 C204.78132948527255 47.92854305539291, 182.1358041059158 28.2430881722373, 143.65409145990165 -5.208554279397788 M234.18474625699895 62.88843935474736 C216.292580483811 47.33501693730566, 198.40041471062304 31.78159451986396, 155.69494991383067 -5.341699660265405 M234.18474625699895 62.88843935474736 C211.07221312862026 42.79702082890958, 187.95968000024158 22.705602303071807, 155.69494991383067 -5.341699660265405 M238.67850890870022 56.19470368397468 C212.88313442992091 33.771126752568655, 187.08775995114158 11.34754982116263, 167.73580836775966 -5.474845041133008 M238.67850890870022 56.19470368397468 C212.49586936829817 33.43448237048043, 186.31322982789612 10.674261056986182, 167.73580836775966 -5.474845041133008 M240.9081428197332 47.53279092623045 C224.48395113995855 33.25545891965074, 208.0597594601839 18.978126913071033, 180.53137640191142 -4.951931393010128 M240.9081428197332 47.53279092623045 C216.85629624423999 26.62483967816359, 192.8044496687468 5.716888430096731, 180.53137640191142 -4.951931393010128 M240.87364799009785 36.90270108151475 C226.12123362463313 24.078622922846684, 211.36881925916845 11.254544764178615, 192.57223485584046 -5.085076773877731 M240.87364799009785 36.90270108151475 C229.61597742943167 27.11655736442347, 218.3583068687655 17.330413647332197, 192.57223485584046 -5.085076773877731 M240.8391531604625 26.27261123679901 C233.56601559946515 19.950169212710943, 226.2928780384678 13.627727188622877, 204.61309330976945 -5.218222154745348 M240.8391531604625 26.27261123679901 C229.68522525708474 16.57664963583437, 218.53129735370698 6.880688034869731, 204.61309330976945 -5.218222154745348 M237.0311104297133 12.36222624713075 C233.19077182992731 9.023870833613056, 229.35043323014133 5.685515420095364, 221.1822092450351 -1.4150133616699065 M237.0311104297133 12.36222624713075 C232.60876691101214 8.517941676256276, 228.18642339231096 4.673657105381802, 221.1822092450351 -1.4150133616699065" stroke="#e5e6e8" stroke-width="1" fill="none"></path><path d="M17.25 0 M17.25 0 C74.68378450814635 0, 132.1175690162927 0, 219.75 0 M17.25 0 C71.68854894395918 0, 126.12709788791837 0, 219.75 0 M219.75 0 C231.25 0, 237 5.75, 237 17.25 M219.75 0 C231.25 0, 237 5.75, 237 17.25 M237 17.25 C237 30.373253604210916, 237 43.49650720842183, 237 51.75 M237 17.25 C237 27.834377861581743, 237 38.418755723163486, 237 51.75 M237 51.75 C237 63.25, 231.25 69, 219.75 69 M237 51.75 C237 63.25, 231.25 69, 219.75 69 M219.75 69 C152.04198274668306 69, 84.33396549336612 69, 17.25 69 M219.75 69 C143.67113874200732 69, 67.59227748401463 69, 17.25 69 M17.25 69 C5.75 69, 0 63.25, 0 51.75 M17.25 69 C5.75 69, 0 63.25, 0 51.75 M0 51.75 C0 38.484138635359706, 0 25.21827727071941, 0 17.25 M0 51.75 C0 43.749672388471666, 0 35.749344776943325, 0 17.25 M0 17.25 C0 5.75, 5.75 0, 17.25 0 M0 17.25 C0 5.75, 5.75 0, 17.25 0" stroke="#000000" stroke-width="2" fill="none"></path></g><g transform="translate(312 593) rotate(0 53 12)"><text x="53" y="17" font-family="Helvetica, Segoe UI Emoji" font-size="20px" fill="#000000" text-anchor="middle" style="white-space: pre;" direction="ltr">маркетолог</text></g><g><g transform="translate(330.43967953894776 39.50000000000006) rotate(0 4.494792369883385 65.03377849981189)"><path d="M-0.6546679571270942 -0.6769584819674491 C1.1400000614858752 21.11339860434334, 8.008384421933238 108.77658423756563, 9.644252696893863 130.74451548159126 M1.2024926360417156 1.5820343696605415 C3.0194656976963916 22.99912412216577, 7.949795484905858 107.5500049889119, 9.188193631628282 128.81737604673023" stroke="#000000" stroke-width="1" fill="none"></path></g><g transform="translate(330.43967953894776 39.50000000000006) rotate(0 4.494792369883385 65.03377849981189)"><path d="M-3.8362194462987897 102.83869223905923 C0.3678333976709678 107.78050132761615, 3.46617043206729 112.93824057009812, 11.05910051361633 127.36347649182196 M-3.4360401979956148 101.89118708161833 C-0.40584224809063096 108.1338320714215, 2.9277029320670014 114.19726274257047, 9.325423823008068 129.05594414035792" stroke="#000000" stroke-width="1" fill="none"></path></g><g transform="translate(330.43967953894776 39.50000000000006) rotate(0 4.494792369883385 65.03377849981189)"><path d="M16.64967204456085 101.63525873006756 C16.62640886293409 106.7136386550481, 15.497406074200024 112.11971087338907, 11.05910051361633 127.36347649182196 M17.049851292864027 100.68775357262666 C15.141477665405155 107.01759358808657, 13.543469528208712 113.37072590664158, 9.325423823008068 129.05594414035792" stroke="#000000" stroke-width="1" fill="none"></path></g></g><g><g transform="translate(446.7913833840562 85.80733178596938) rotate(0 -23.89518870268938 38.747156658987535)"><path d="M-0.9855838850140571 0.08028648644685754 C-8.89415111068012 13.058403025002539, -39.6827049197317 65.2841529564622, -47.2823961078001 78.41748037148272 M0.6978458460140975 -0.923167053507641 C-7.426494415833892 11.664719947262986, -40.498513641018874 63.66136770318887, -48.48822325139287 76.67543200536636" stroke="#000000" stroke-width="1" fill="none"></path></g><g transform="translate(446.7913833840562 85.80733178596938) rotate(0 -23.89518870268938 38.747156658987535)"><path d="M-42.07628957301107 46.52134544392514 C-42.8397801991714 56.84810600873819, -44.04035340574547 64.72845183582271, -49.6438308995867 78.33864604069856 M-41.23639422401514 47.10973682617235 C-44.68904720050427 56.932290518405715, -45.35512112417234 68.30623742553045, -49.24941410913112 77.23153812198905" stroke="#000000" stroke-width="1" fill="none"></path></g><g transform="translate(446.7913833840562 85.80733178596938) rotate(0 -23.89518870268938 38.747156658987535)"><path d="M-24.688446239935157 57.42010255702051 C-30.96302109555893 64.1809287591492, -37.62483659530706 68.63815004175123, -49.6438308995867 78.33864604069856 M-23.848550890939233 58.00849393926772 C-33.49187915806279 64.07619883177136, -40.24778397484906 71.6330198025435, -49.24941410913112 77.23153812198905" stroke="#000000" stroke-width="1" fill="none"></path></g></g><g><g transform="translate(580.4782902794905 120.31653015465264) rotate(0 -53.16030687734377 27.650257031494874)"><path d="M0.6585907772183417 0.43540710657835 C-17.019766708905433 9.531874724973035, -88.30167557147611 45.271890773121484, -106.41779093113504 54.15804497598882 M-0.45478779408149417 -0.38160810780711474 C-18.196308898948693 8.95381914697778, -89.45369736403507 46.4779421598932, -106.97920453190581 55.68212217079687" stroke="#000000" stroke-width="1" fill="none"></path></g><g transform="translate(580.4782902794905 120.31653015465264) rotate(0 -53.16030687734377 27.650257031494874)"><path d="M-86.08032022822847 34.704981049704614 C-92.3937640448347 38.13326575461332, -98.53748565371325 43.89229438793368, -108.674911547599 54.20876764493275 M-87.5924938026463 32.574370326656165 C-93.26343034843765 39.57713631099382, -98.04739252304228 46.07785688473369, -106.9334267081298 55.42345366241622" stroke="#000000" stroke-width="1" fill="none"></path></g><g transform="translate(580.4782902794905 120.31653015465264) rotate(0 -53.16030687734377 27.650257031494874)"><path d="M-76.52714815138377 52.866944205047545 C-85.366101399975 51.425231397252965, -94.099014448797 52.26183225934513, -108.674911547599 54.20876764493275 M-78.0393217258016 50.7363334819991 C-86.47412270856955 52.510751317074096, -93.98249767019504 53.83196876244981, -106.9334267081298 55.42345366241622" stroke="#000000" stroke-width="1" fill="none"></path></g></g><g><g transform="translate(552.543229735372 172.81202385999364) rotate(0 -31.179419587794428 18.33608278224)"><path d="M-0.2574276521801948 0.9098016098141668 C-10.806867441631145 7.072166982182108, -52.46025580513868 30.644239946644717, -62.921669166366975 36.3303220548525 M1.8082841010857376 0.3418435096275063 C-8.98155492236208 6.192784619173772, -53.175119250403895 28.510873549276923, -64.16712327667459 34.434963395776926" stroke="#000000" stroke-width="1" fill="none"></path></g><g transform="translate(552.543229735372 172.81202385999364) rotate(0 -31.179419587794428 18.33608278224)"><path d="M-42.37340746152211 11.38135694479455 C-50.00388333735165 18.487826119268366, -58.89409363587215 26.601974938701044, -65.86013522365077 35.055270908358274 M-44.333891031173955 12.878966280723706 C-48.86262253009333 17.066254014710637, -52.71185658519397 23.56675960685891, -64.21744088821991 33.55353649142641" stroke="#000000" stroke-width="1" fill="none"></path></g><g transform="translate(552.543229735372 172.81202385999364) rotate(0 -31.179419587794428 18.33608278224)"><path d="M-32.905731330901595 29.58803459535777 C-43.57466144344829 30.643277619686103, -55.601015452055364 32.72651063595587, -65.86013522365077 35.055270908358274 M-34.86621490055344 31.085643931286924 C-41.81022659307292 30.88720449778989, -47.96197099219028 32.95990087443087, -64.21744088821991 33.55353649142641" stroke="#000000" stroke-width="1" fill="none"></path></g></g><g><g transform="translate(211.27459333651473 73.5) rotate(0 29.90979201190072 46.40008426073007)"><path d="M-1.0577122852206229 0.7702801153063774 C8.645316887129692 15.96161905179421, 48.58913166040851 76.12518165161212, 58.69483264672367 91.08765248507261 M0.5878500356990846 0.12907323050312702 C10.612901899120432 15.537732856847965, 51.184575235166754 77.4219788069309, 60.877296309022064 92.67109529095701" stroke="#000000" stroke-width="1" fill="none"></path></g><g transform="translate(211.27459333651473 73.5) rotate(0 29.90979201190072 46.40008426073007)"><path d="M38.2312930713248 72.8969547043773 C45.21394422294519 80.7239677016026, 52.43916655135145 86.03054006650054, 60.52428739055788 92.57759210634045 M37.033082910145495 74.09426441818798 C41.89892518729555 78.34608619127168, 47.32797100255867 83.82508259194394, 61.51004875361716 92.26434834095649" stroke="#000000" stroke-width="1" fill="none"></path></g><g transform="translate(211.27459333651473 73.5) rotate(0 29.90979201190072 46.40008426073007)"><path d="M55.45989937944187 61.74818225779161 C56.584013313313086 73.210815022586, 57.95630821998191 82.30486472629738, 60.52428739055788 92.57759210634045 M54.26168921826257 62.945491971602294 C55.29038953333991 69.60595316006997, 56.83630098660889 77.59775765485914, 61.51004875361716 92.26434834095649" stroke="#000000" stroke-width="1" fill="none"></path></g></g><g><g transform="translate(132.8562084276267 139.5) rotate(0 53.53350338513303 33.947710478586316)"><path d="M0.07715395241975775 -0.5015627458691597 C18.026810866779943 10.861059212073432, 90.34316871259045 56.86546984009318, 108.40848572216548 68.45654791375843 M-1.3414789518993349 -1.810487132789567 C16.41114479110513 9.683920312983659, 89.3968046048345 57.67362435291394, 107.59940468717917 69.7059080899622" stroke="#000000" stroke-width="1" fill="none"></path></g><g transform="translate(132.8562084276267 139.5) rotate(0 53.53350338513303 33.947710478586316)"><path d="M77.57755709637034 63.205690784203725 C87.99917601765496 65.7813012482316, 99.46370188393597 66.63891378082835, 109.3593084235917 70.01916845896501 M78.61205848876465 63.62240304966541 C89.33677974348063 65.63162936861487, 99.2314486470722 68.33768136226492, 108.15031399403318 70.64905923986096" stroke="#000000" stroke-width="1" fill="none"></path></g><g transform="translate(132.8562084276267 139.5) rotate(0 53.53350338513303 33.947710478586316)"><path d="M88.86759219302398 46.06932273545523 C95.27379621493117 54.807781499620475, 102.68280577203156 61.82098340876572, 109.3593084235917 70.01916845896501 M89.90209358541829 46.486035000916914 C96.29139611939124 54.80029008309016, 102.01367893228486 63.839320059498775, 108.15031399403318 70.64905923986096" stroke="#000000" stroke-width="1" fill="none"></path></g></g><g><g transform="translate(133.24286035104035 200.50000000000006) rotate(0 52.08311962135912 19.5889510237391)"><path d="M-0.5426756545901298 0.5034772798418998 C16.788731187410754 6.896012183094485, 87.39519756946763 31.84619916510812, 104.70891489730836 37.94819604345836 M1.3732808974105866 -0.27780109358020133 C18.566905323365805 6.3497288693414005, 87.43030882806568 33.081762951314886, 104.26055143906423 39.455703141058386" stroke="#000000" stroke-width="1" fill="none"></path></g><g transform="translate(133.24286035104035 200.50000000000006) rotate(0 52.08311962135912 19.5889510237391)"><path d="M75.10439209566297 40.51030996686925 C84.9679698307706 38.555240950440556, 94.37956216697522 39.62741953141777, 105.50410800560066 39.1747264209041 M74.25663590730014 38.471341504372255 C85.57897900413707 39.317778665942576, 95.4845257459432 39.64350838389391, 104.10311402140805 39.79411545943707" stroke="#000000" stroke-width="1" fill="none"></path></g><g transform="translate(133.24286035104035 200.50000000000006) rotate(0 52.08311962135912 19.5889510237391)"><path d="M82.46371713101688 21.35410111934796 C89.61267364463458 26.262742656901644, 96.37461836964499 34.231912846285425, 105.50410800560066 39.1747264209041 M81.61596094265404 19.315132656850963 C90.29610731727533 26.864546018906804, 97.63592052962355 33.86884029288335, 104.10311402140805 39.79411545943707" stroke="#000000" stroke-width="1" fill="none"></path></g></g><g><g transform="translate(364.6252010385854 290.5) rotate(0 0.8800147480575333 33.096433110535145)"><path d="M-0.9386453106999397 -1.3477927967905998 C1.2557937636321372 15.003258325885465, 2.5237908923443335 31.559630370493462, 2.6400223052617093 67.54065901786089 M-0.44278832897543907 0.16457202658057213 C0.7196103471771985 13.30895232559021, 1.1373505342888057 27.87713670917626, 2.6986748068150064 66.75556149706244" stroke="#000000" stroke-width="4" fill="none"></path></g><g transform="translate(364.6252010385854 290.5) rotate(0 0.8800147480575333 33.096433110535145)"><path d="M-9.60538036008308 37.643989080043006 C-5.31432007745736 44.91892278651823, -1.9001010227628763 52.41862753397835, 3.2713693989928743 67.29622051492333 M-9.10952337835858 39.15635390341418 C-6.15424603246735 44.07644177395241, -3.806479149023505 50.50026352118415, 3.3300219005461713 66.51112299412489" stroke="#000000" stroke-width="4" fill="none"></path></g><g transform="translate(364.6252010385854 290.5) rotate(0 0.8800147480575333 33.096433110535145)"><path d="M10.89983396995556 36.83393496764217 C10.45881957817529 44.33874239692328, 9.139939923402489 52.02542719795868, 3.2713693989928743 67.29622051492333 M11.395690951680061 38.346299791013344 C10.097480002783929 43.61080315840705, 8.188927092333861 50.202769909989506, 3.3300219005461713 66.51112299412489" stroke="#000000" stroke-width="4" fill="none"></path></g></g><g><g transform="translate(364.9923841612547 562.6969576187699) rotate(0 -2.5374190762528315 -52.275093274903384)"><path d="M0.17965902388095856 0.32074175775051117 C0.9006603401904072 -33.70684214476287, -0.29710962753902415 -68.07740136053933, -5.440629582462407 -102.86540959545391 M-1.789924331009388 -1.4373821541666985 C-2.653985875539467 -21.662368356713863, -4.003360698789134 -43.20484103919071, -3.2695953283287054 -104.87092830755728" stroke="#000000" stroke-width="2" fill="none"></path></g><g transform="translate(364.9923841612547 562.6969576187699) rotate(0 -2.5374190762528315 -52.275093274903384)"><path d="M7.0674362447095795 -76.32204840897954 C6.16700979178899 -86.67149684861712, 3.2633465186721864 -97.30132093888581, -3.943449545261956 -104.48783389248865 M5.097852889819233 -78.08017232089675 C4.405341683462606 -82.64626708059909, 1.930610997979409 -88.52728229510328, -1.7724152911282545 -106.49335260459202" stroke="#000000" stroke-width="2" fill="none"></path></g><g transform="translate(364.9923841612547 562.6969576187699) rotate(0 -2.5374190762528315 -52.275093274903384)"><path d="M-13.453634947920293 -76.39714496586268 C-7.859936064354663 -86.48452246993854, -4.269558552304976 -97.09058171388675, -3.943449545261956 -104.48783389248865 M-15.423218302810639 -78.15526887777989 C-11.830396144767766 -82.69591786029277, -10.021091689195508 -88.56125571148391, -1.7724152911282545 -106.49335260459202" stroke="#000000" stroke-width="2" fill="none"></path></g></g><g transform="translate(596 188) rotate(0 42.5 9.5)"><text x="0" y="13" font-family="Helvetica, Segoe UI Emoji" font-size="16px" fill="#000000" text-anchor="start" style="white-space: pre;" direction="ltr">тип товара </text></g><g><g transform="translate(584.0512050741779 205.35900567375666) rotate(0 -45.495427478917804 12.542156059567617)"><path d="M-0.6610251501202583 -0.3450214549899101 C-16.168139852787657 3.9930895674299447, -77.07906655324302 20.93802580836974, -92.18365287456277 25.32363286350444 M1.1927979167271405 -1.5717616641987116 C-14.018935876199334 2.998243462403863, -74.41600827538088 21.824156492043286, -89.96029159261461 26.656073783333973" stroke="#000000" stroke-width="1" fill="none"></path></g><g transform="translate(584.0512050741779 205.35900567375666) rotate(0 -45.495427478917804 12.542156059567617)"><path d="M-66.66570427360901 6.932447275763749 C-75.71780552411585 15.04547541713941, -83.51244991098196 20.15871140996586, -90.42928377373691 27.934498828645424 M-66.75318924802312 7.945247332251071 C-71.73825341884972 12.31776510770236, -77.24430337126174 18.177650238089477, -90.70692961870309 25.69191646650024" stroke="#000000" stroke-width="1" fill="none"></path></g><g transform="translate(584.0512050741779 205.35900567375666) rotate(0 -45.495427478917804 12.542156059567617)"><path d="M-60.5690537345309 26.52711120730894 C-71.77146258650103 27.32544743966676, -81.8315386582145 25.157575184623905, -90.42928377373691 27.934498828645424 M-60.65653870894501 27.539911263796263 C-67.0423323507322 27.15966939928615, -74.02845464070182 28.262594972466403, -90.70692961870309 25.69191646650024" stroke="#000000" stroke-width="1" fill="none"></path></g></g><g transform="translate(154 498.75) rotate(0 213 17)"><path d="M10.523159638047218 3.9388881772756577 L415.5712052732706 -0.8502539545297623 L422.86011089384556 3.1629568189382553 L429.3698569685221 27.86572752892971 L419.90854896605015 31.317140206694607 L417.0499173551798 36.06065188348293 L6.227067604660988 37.2803445905447 L3.638730183243751 29.14467535912991 L-3.5007394403219223 25.30647622048855 L2.9448892027139664 1.5592042058706284 L5.1274715811014175 -3.319308653473854" stroke="none" stroke-width="0" fill="#fff"></path><path d="M6.151988163590431 3.120644673705101 M6.615085562927104 -1.4831087458090302 C96.20759543585672 -3.198532976191231, 184.72710495238982 -0.07184289208936367, 415.42781146650526 0.6460004768090724 M7.61373982716949 0.21751409844505784 C158.50953664744705 -2.139594388601791, 309.58663863615726 -3.324940817090713, 416.6462046352803 0.7459144153220414 M417.5 0 C426.4569962571065 3.4996601194143295, 422.0936242491007 6.169461672504743, 422.22057069838047 11.668181523680687 M415.75106014311314 0.9241682142019272 C421.22765455568833 2.7463909633457657, 425.03819166347387 -1.4168791207174456, 428.9024479024112 5.762697292119265 M428.9108789853752 11.139503044635058 C425.9408714196831 10.250384251400828, 426.740584006086 13.935527695715425, 428.86336147114633 26.02157370522618 M425.8363603685051 7.65134811066091 C427.56972725078464 13.608449821919203, 424.9010437099636 22.927413334324957, 427.21828582026063 26.974829801544548 M426 25.5 C428.40980495512486 34.86165549854438, 423.97257023553055 31.771172627806664, 414.9337655454874 31.29664622247219 M422.27391685545444 27.740529641509056 C422.8216694705188 29.173678080985944, 424.0146472724776 36.071823097020385, 418.1972740761936 38.51693193987012 M419.25290636885364 35.55271333293243 C330.2640961790417 31.531164472522175, 245.94358370158326 31.191992955647482, 6.891064247236491 36.14451835262084 M417.8763986422238 33.013226785588 C291.78540727240244 36.31798332781872, 164.40996088663874 34.92280250138058, 8.252796383244776 33.72230520861733 M8.5 34 C-0.6475792179505033 30.870236977934837, 3.2091618925333023 28.620381141702335, -1.5019043534994125 23.074952229857445 M8.751424446702003 34.509466752409935 C6.66060320859154 34.9441485889256, -1.8034639723598955 35.757256882141036, 0.5400464169681074 21.280593467503785 M-0.024249703437090098 24.542565388232468 C3.404331279918551 20.236348411813378, -1.947716997936368 11.577733516693113, -2.430174810439348 8.331725282222033 M-0.3848303224891425 26.955503126606345 C1.2995941093564034 17.4423819899559, 0.9883583834767343 11.677108982577918, -1.2539989259094 6.917847427353263 M0 8.5 C-2.6982291787862778 4.612644140919049, 3.945326303442319 -2.9873398691415787, 5.472154751420021 2.8820057958364487 M-1.882823333144188 10.734885796904564 C-3.711078084260225 -1.4168719920019308, 1.1720740747948484 -3.4456689111888403, 8.69814773723483 -3.2105759374797342" stroke="transparent" stroke-width="1" fill="none"></path></g><g transform="translate(218 511.75) rotate(0 150 12)"><text x="150" y="17" font-family="Helvetica, Segoe UI Emoji" font-size="20px" fill="#000000" text-anchor="middle" style="white-space: pre;" direction="ltr">Как попасть в поле восприятия?</text></g></svg>